<svg width="227" height="46" viewBox="0 0 227 46" fill="none" xmlns="http://www.w3.org/2000/svg">
<path d="M65.756 37.9182V20.6262C65.756 18.5802 65.69 16.9302 65.624 15.4122H68.231L68.363 18.1512H68.429C69.617 16.2042 71.498 15.0492 74.105 15.0492C77.966 15.0492 80.87 18.3162 80.87 23.1672C80.87 28.9092 77.372 31.7472 73.61 31.7472C71.498 31.7472 69.65 30.8232 68.693 29.2392H68.627V37.9182H65.756ZM68.627 22.1442V24.8832C68.627 25.3122 68.693 25.7082 68.759 26.0712C69.287 28.0842 71.036 29.4702 73.115 29.4702C76.184 29.4702 77.966 26.9622 77.966 23.2992C77.966 20.0982 76.283 17.3592 73.214 17.3592C71.234 17.3592 69.386 18.7782 68.825 20.9562C68.726 21.3192 68.627 21.7482 68.627 22.1442Z" fill="white"/>
<path d="M94.7411 23.9262H83.5211C83.5871 27.8532 86.0951 29.4702 88.9991 29.4702C91.0781 29.4702 92.3321 29.1072 93.4211 28.6452L93.9161 30.7242C92.8931 31.1862 91.1441 31.7142 88.6031 31.7142C83.6861 31.7142 80.7491 28.4802 80.7491 23.6622C80.7491 18.8442 83.5871 15.0492 88.2401 15.0492C93.4541 15.0492 94.8401 19.6362 94.8401 22.5732C94.8401 23.1672 94.7741 23.6292 94.7411 23.9262ZM83.5541 21.8472H92.0351C92.0681 19.9992 91.2761 17.1282 88.0091 17.1282C85.0721 17.1282 83.7851 19.8342 83.5541 21.8472Z" fill="white"/>
<path d="M106.686 7.95424H109.59V27.2592C109.59 28.6782 109.623 30.2952 109.722 31.3842H107.115L106.983 28.6122H106.917C106.026 30.3942 104.079 31.7472 101.472 31.7472C97.6113 31.7472 94.6413 28.4802 94.6413 23.6292C94.6083 18.3162 97.9083 15.0492 101.802 15.0492C104.244 15.0492 105.894 16.2042 106.62 17.4912H106.686V7.95424ZM106.686 24.6852V21.9132C106.686 21.5502 106.653 21.0552 106.554 20.6922C106.125 18.8442 104.541 17.3262 102.363 17.3262C99.3603 17.3262 97.5783 19.9662 97.5783 23.4972C97.5783 26.7312 99.1623 29.4042 102.297 29.4042C104.244 29.4042 106.026 28.1172 106.554 25.9392C106.653 25.5432 106.686 25.1472 106.686 24.6852Z" fill="white"/>
<path d="M111.783 31.3842V20.3952C111.783 18.5142 111.75 16.8972 111.651 15.4122H114.192L114.291 18.5472H114.423C115.149 16.4022 116.898 15.0492 118.845 15.0492C119.175 15.0492 119.406 15.0822 119.67 15.1482V17.8872C119.373 17.8212 119.076 17.7882 118.68 17.7882C116.634 17.7882 115.182 19.3392 114.786 21.5172C114.72 21.9132 114.654 22.3752 114.654 22.8702V31.3842H111.783Z" fill="white"/>
<path d="M126.382 15.0492C130.969 15.0492 134.071 18.3822 134.071 23.2662C134.071 29.1732 129.979 31.7472 126.118 31.7472C121.795 31.7472 118.462 28.5792 118.462 23.5302C118.462 18.1842 121.96 15.0492 126.382 15.0492ZM126.316 17.2272C122.884 17.2272 121.399 20.3952 121.399 23.4312C121.399 26.9292 123.412 29.5692 126.25 29.5692C129.022 29.5692 131.101 26.9622 131.101 23.3652C131.101 20.6592 129.748 17.2272 126.316 17.2272Z" fill="white"/>
<path d="M152.116 19.7022V30.3942C150.829 30.8562 148.288 31.6152 145.285 31.6152C141.919 31.6152 139.147 30.7572 136.969 28.6782C135.055 26.8302 133.867 23.8602 133.867 20.3952C133.9 13.7622 138.454 8.91124 145.912 8.91124C148.486 8.91124 150.499 9.47224 151.456 9.93424L150.763 12.2772C149.575 11.7492 148.09 11.3202 145.846 11.3202C140.434 11.3202 136.903 14.6862 136.903 20.2632C136.903 25.9062 140.302 29.2392 145.483 29.2392C147.364 29.2392 148.651 28.9752 149.311 28.6452V22.0122H144.79V19.7022H152.116Z" fill="white"/>
<path d="M160.708 15.0492C165.295 15.0492 168.397 18.3822 168.397 23.2662C168.397 29.1732 164.305 31.7472 160.444 31.7472C156.121 31.7472 152.788 28.5792 152.788 23.5302C152.788 18.1842 156.286 15.0492 160.708 15.0492ZM160.642 17.2272C157.21 17.2272 155.725 20.3952 155.725 23.4312C155.725 26.9292 157.738 29.5692 160.576 29.5692C163.348 29.5692 165.427 26.9622 165.427 23.3652C165.427 20.6592 164.074 17.2272 160.642 17.2272Z" fill="white"/>
<path d="M182.78 15.4122V27.0282C182.78 28.6782 182.813 30.1302 182.912 31.3842H180.338L180.173 28.7772H180.107C179.348 30.0642 177.665 31.7472 174.827 31.7472C172.319 31.7472 169.316 30.3612 169.316 24.7512V15.4122H172.22V24.2562C172.22 27.2922 173.144 29.3382 175.784 29.3382C177.731 29.3382 179.084 27.9852 179.612 26.6982C179.777 26.2692 179.876 25.7412 179.876 25.2132V15.4122H182.78Z" fill="white"/>
<path d="M195.84 7.95424H198.744V27.2592C198.744 28.6782 198.777 30.2952 198.876 31.3842H196.269L196.137 28.6122H196.071C195.18 30.3942 193.233 31.7472 190.626 31.7472C186.765 31.7472 183.795 28.4802 183.795 23.6292C183.762 18.3162 187.062 15.0492 190.956 15.0492C193.398 15.0492 195.048 16.2042 195.774 17.4912H195.84V7.95424ZM195.84 24.6852V21.9132C195.84 21.5502 195.807 21.0552 195.708 20.6922C195.279 18.8442 193.695 17.3262 191.517 17.3262C188.514 17.3262 186.732 19.9662 186.732 23.4972C186.732 26.7312 188.316 29.4042 191.451 29.4042C193.398 29.4042 195.18 28.1172 195.708 25.9392C195.807 25.5432 195.84 25.1472 195.84 24.6852Z" fill="white"/>
<path d="M213.774 23.9262H202.554C202.62 27.8532 205.128 29.4702 208.032 29.4702C210.111 29.4702 211.365 29.1072 212.454 28.6452L212.949 30.7242C211.926 31.1862 210.177 31.7142 207.636 31.7142C202.719 31.7142 199.782 28.4802 199.782 23.6622C199.782 18.8442 202.62 15.0492 207.273 15.0492C212.487 15.0492 213.873 19.6362 213.873 22.5732C213.873 23.1672 213.807 23.6292 213.774 23.9262ZM202.587 21.8472H211.068C211.101 19.9992 210.309 17.1282 207.042 17.1282C204.105 17.1282 202.818 19.8342 202.587 21.8472Z" fill="white"/>
<path d="M215.49 11.5842L218.328 10.8252V15.4122H222.486V17.6232H218.328V26.2362C218.328 28.2162 218.889 29.3382 220.506 29.3382C221.265 29.3382 221.826 29.2392 222.189 29.1402L222.321 31.3182C221.76 31.5492 220.869 31.7142 219.747 31.7142C218.394 31.7142 217.305 31.2852 216.612 30.4932C215.787 29.6352 215.49 28.2162 215.49 26.3352V17.6232H213.015V15.4122H215.49V11.5842Z" fill="white"/>
<path d="M224.272 31.7472C223.117 31.7472 222.325 30.8562 222.325 29.6682C222.325 28.4472 223.15 27.5892 224.305 27.5892C225.46 27.5892 226.252 28.4472 226.252 29.6682C226.252 30.8562 225.493 31.7472 224.272 31.7472Z" fill="white"/>
<path d="M14.525 37.9182V20.6592C14.525 18.5472 14.459 16.8312 14.393 15.3132H17.957L18.155 17.7882H18.221C19.409 15.9732 21.29 14.9502 23.732 14.9502C27.428 14.9502 30.497 18.1182 30.497 23.1342C30.497 28.9422 26.834 31.7472 23.171 31.7472C21.158 31.7472 19.475 30.8892 18.65 29.6022H18.584V37.9182H14.525ZM18.584 22.1772V24.6522C18.584 25.0482 18.617 25.4112 18.716 25.7742C19.112 27.4242 20.564 28.6122 22.28 28.6122C24.854 28.6122 26.372 26.4672 26.372 23.2992C26.372 20.4612 24.986 18.1512 22.379 18.1512C20.696 18.1512 19.145 19.3722 18.749 21.1542C18.65 21.4842 18.584 21.8472 18.584 22.1772Z" fill="white"/>
<path d="M49.1737 19.1082V30.3612C47.7547 30.8892 44.9827 31.6152 42.0127 31.6152C38.2507 31.6152 35.4127 30.6582 33.3007 28.6452C31.3207 26.7642 30.1657 23.8272 30.1987 20.4612C30.1987 13.4322 35.2147 8.91124 42.5737 8.91124C45.3127 8.91124 47.4577 9.47224 48.4807 9.96724L47.5897 13.2342C46.3687 12.7062 44.8837 12.2772 42.5407 12.2772C37.7887 12.2772 34.4557 15.0822 34.4557 20.2632C34.4557 25.3122 37.5577 28.3152 42.1777 28.3152C43.6297 28.3152 44.7187 28.1172 45.2467 27.8532V22.3092H41.3197V19.1082H49.1737Z" fill="white"/>
<path d="M0 24.8492V21.1442C3.99 21.0872 4.446 18.9212 4.446 17.0972C4.446 15.6152 4.104 12.5372 4.104 12.5372C4.104 12.5372 3.705 9.40224 3.705 7.92024C3.705 2.56224 7.125 0.282238 12.198 0.282238H13.851V4.38624H12.825C9.861 4.38624 8.835 6.03924 8.835 8.83224C8.835 9.97224 9.006 11.1692 9.234 12.4232C9.348 13.6772 9.576 15.0452 9.576 16.5272C9.633 20.5172 7.923 22.2272 5.016 22.9112V23.0252C7.923 23.7092 9.633 25.4762 9.576 29.4662C9.576 31.0052 9.348 32.3732 9.234 33.6272C9.006 34.8812 8.835 36.0782 8.835 37.2182C8.835 40.0682 9.975 41.7212 12.825 41.7212H13.851V45.7682H12.198C7.239 45.7682 3.705 43.7162 3.705 37.9592C3.705 36.5342 3.876 34.9382 4.104 33.3992C4.275 31.8602 4.446 30.3782 4.446 28.8962C4.446 27.2432 3.99 24.9062 0 24.8492Z" fill="white"/>
<path d="M63.0247 21.2012V24.9062C59.0347 24.9632 58.5787 27.1292 58.5787 28.9532C58.5787 30.4352 58.7497 31.9742 58.9207 33.5132C59.1487 35.1092 59.3197 36.6482 59.3197 38.1302C59.3197 43.4882 55.8997 45.7682 50.8267 45.7682H49.1737V41.6642H50.1997C53.1637 41.6642 54.1897 40.0112 54.1897 37.2182C54.1897 36.0782 54.0187 34.8812 53.7907 33.6272C53.6767 32.3732 53.4487 31.0052 53.4487 29.5232C53.3917 25.5332 55.1017 23.8232 58.0087 23.1392V23.0252C55.1017 22.3412 53.3917 20.5742 53.4487 16.5842C53.4487 15.0452 53.6767 13.6772 53.7907 12.4232C54.0187 11.1692 54.1897 9.97223 54.1897 8.83223C54.1897 5.98223 53.0497 4.32922 50.1997 4.32922H49.1737V0.282227H50.8267C55.7857 0.282227 59.3197 2.33422 59.3197 8.09122C59.3197 9.51622 59.1487 11.1122 58.9207 12.6512C58.7497 14.1902 58.5787 15.6722 58.5787 17.1542C58.5787 18.8072 59.0347 21.1442 63.0247 21.2012Z" fill="white"/>
</svg>
