<svg width="227" height="47" viewBox="0 0 227 47" fill="none" xmlns="http://www.w3.org/2000/svg">
<path d="M66.409 38.5342V21.2422C66.409 19.1962 66.343 17.5462 66.277 16.0282H68.884L69.016 18.7672H69.082C70.27 16.8202 72.151 15.6652 74.758 15.6652C78.619 15.6652 81.523 18.9322 81.523 23.7832C81.523 29.5252 78.025 32.3632 74.263 32.3632C72.151 32.3632 70.303 31.4392 69.346 29.8552H69.28V38.5342H66.409ZM69.28 22.7602V25.4992C69.28 25.9282 69.346 26.3242 69.412 26.6872C69.94 28.7002 71.6889 30.0862 73.768 30.0862C76.837 30.0862 78.619 27.5782 78.619 23.9152C78.619 20.7142 76.936 17.9752 73.867 17.9752C71.887 17.9752 70.0389 19.3942 69.478 21.5722C69.379 21.9352 69.28 22.3642 69.28 22.7602Z" fill="url(#paint0_linear_1750_224)"/>
<path d="M95.394 24.5422H84.174C84.24 28.4692 86.748 30.0862 89.652 30.0862C91.731 30.0862 92.985 29.7232 94.074 29.2612L94.569 31.3402C93.546 31.8022 91.797 32.3302 89.256 32.3302C84.339 32.3302 81.402 29.0962 81.402 24.2782C81.402 19.4602 84.24 15.6652 88.893 15.6652C94.107 15.6652 95.493 20.2522 95.493 23.1892C95.493 23.7832 95.427 24.2452 95.394 24.5422ZM84.207 22.4632H92.688C92.721 20.6152 91.929 17.7442 88.662 17.7442C85.725 17.7442 84.438 20.4502 84.207 22.4632Z" fill="url(#paint1_linear_1750_224)"/>
<path d="M107.339 8.57021H110.243V27.8752C110.243 29.2942 110.276 30.9112 110.375 32.0002H107.768L107.636 29.2282H107.57C106.679 31.0102 104.732 32.3632 102.125 32.3632C98.2643 32.3632 95.2943 29.0962 95.2943 24.2452C95.2613 18.9322 98.5613 15.6652 102.455 15.6652C104.897 15.6652 106.547 16.8202 107.273 18.1072H107.339V8.57021ZM107.339 25.3012V22.5292C107.339 22.1662 107.306 21.6712 107.207 21.3082C106.778 19.4602 105.194 17.9422 103.016 17.9422C100.013 17.9422 98.2313 20.5822 98.2313 24.1132C98.2313 27.3472 99.8153 30.0202 102.95 30.0202C104.897 30.0202 106.679 28.7332 107.207 26.5552C107.306 26.1592 107.339 25.7632 107.339 25.3012Z" fill="url(#paint2_linear_1750_224)"/>
<path d="M112.436 32.0002V21.0112C112.436 19.1302 112.403 17.5132 112.304 16.0282H114.845L114.944 19.1632H115.076C115.802 17.0182 117.551 15.6652 119.498 15.6652C119.828 15.6652 120.059 15.6982 120.323 15.7642V18.5032C120.026 18.4372 119.729 18.4042 119.333 18.4042C117.287 18.4042 115.835 19.9552 115.439 22.1332C115.373 22.5292 115.307 22.9912 115.307 23.4862V32.0002H112.436Z" fill="url(#paint3_linear_1750_224)"/>
<path d="M127.035 15.6652C131.622 15.6652 134.724 18.9982 134.724 23.8822C134.724 29.7892 130.632 32.3632 126.771 32.3632C122.448 32.3632 119.115 29.1952 119.115 24.1462C119.115 18.8002 122.613 15.6652 127.035 15.6652ZM126.969 17.8432C123.537 17.8432 122.052 21.0112 122.052 24.0472C122.052 27.5452 124.065 30.1852 126.903 30.1852C129.675 30.1852 131.754 27.5782 131.754 23.9812C131.754 21.2752 130.401 17.8432 126.969 17.8432Z" fill="url(#paint4_linear_1750_224)"/>
<path d="M152.769 20.3182V31.0102C151.482 31.4722 148.941 32.2312 145.938 32.2312C142.572 32.2312 139.8 31.3732 137.622 29.2942C135.708 27.4462 134.52 24.4762 134.52 21.0112C134.553 14.3782 139.107 9.52721 146.565 9.52721C149.139 9.52721 151.152 10.0882 152.109 10.5502L151.416 12.8932C150.228 12.3652 148.743 11.9362 146.499 11.9362C141.087 11.9362 137.556 15.3022 137.556 20.8792C137.556 26.5222 140.955 29.8552 146.136 29.8552C148.017 29.8552 149.304 29.5912 149.964 29.2612V22.6282H145.443V20.3182H152.769Z" fill="url(#paint5_linear_1750_224)"/>
<path d="M161.361 15.6652C165.948 15.6652 169.05 18.9982 169.05 23.8822C169.05 29.7892 164.958 32.3632 161.097 32.3632C156.774 32.3632 153.441 29.1952 153.441 24.1462C153.441 18.8002 156.939 15.6652 161.361 15.6652ZM161.295 17.8432C157.863 17.8432 156.378 21.0112 156.378 24.0472C156.378 27.5452 158.391 30.1852 161.229 30.1852C164.001 30.1852 166.08 27.5782 166.08 23.9812C166.08 21.2752 164.727 17.8432 161.295 17.8432Z" fill="url(#paint6_linear_1750_224)"/>
<path d="M183.433 16.0282V27.6442C183.433 29.2942 183.466 30.7462 183.565 32.0002H180.991L180.826 29.3932H180.76C180.001 30.6802 178.318 32.3632 175.48 32.3632C172.972 32.3632 169.969 30.9772 169.969 25.3672V16.0282H172.873V24.8722C172.873 27.9082 173.797 29.9542 176.437 29.9542C178.384 29.9542 179.737 28.6012 180.265 27.3142C180.43 26.8852 180.529 26.3572 180.529 25.8292V16.0282H183.433Z" fill="url(#paint7_linear_1750_224)"/>
<path d="M196.493 8.57021H199.397V27.8752C199.397 29.2942 199.43 30.9112 199.529 32.0002H196.922L196.79 29.2282H196.724C195.833 31.0102 193.886 32.3632 191.279 32.3632C187.418 32.3632 184.448 29.0962 184.448 24.2452C184.415 18.9322 187.715 15.6652 191.609 15.6652C194.051 15.6652 195.701 16.8202 196.427 18.1072H196.493V8.57021ZM196.493 25.3012V22.5292C196.493 22.1662 196.46 21.6712 196.361 21.3082C195.932 19.4602 194.348 17.9422 192.17 17.9422C189.167 17.9422 187.385 20.5822 187.385 24.1132C187.385 27.3472 188.969 30.0202 192.104 30.0202C194.051 30.0202 195.833 28.7332 196.361 26.5552C196.46 26.1592 196.493 25.7632 196.493 25.3012Z" fill="url(#paint8_linear_1750_224)"/>
<path d="M214.427 24.5422H203.207C203.273 28.4692 205.781 30.0862 208.685 30.0862C210.764 30.0862 212.018 29.7232 213.107 29.2612L213.602 31.3402C212.579 31.8022 210.83 32.3302 208.289 32.3302C203.372 32.3302 200.435 29.0962 200.435 24.2782C200.435 19.4602 203.273 15.6652 207.926 15.6652C213.14 15.6652 214.526 20.2522 214.526 23.1892C214.526 23.7832 214.46 24.2452 214.427 24.5422ZM203.24 22.4632H211.721C211.754 20.6152 210.962 17.7442 207.695 17.7442C204.758 17.7442 203.471 20.4502 203.24 22.4632Z" fill="url(#paint9_linear_1750_224)"/>
<path d="M216.143 12.2002L218.981 11.4412V16.0282H223.139V18.2392H218.981V26.8522C218.981 28.8322 219.542 29.9542 221.159 29.9542C221.918 29.9542 222.479 29.8552 222.842 29.7562L222.974 31.9342C222.413 32.1652 221.522 32.3302 220.4 32.3302C219.047 32.3302 217.958 31.9012 217.265 31.1092C216.44 30.2512 216.143 28.8322 216.143 26.9512V18.2392H213.668V16.0282H216.143V12.2002Z" fill="url(#paint10_linear_1750_224)"/>
<path d="M224.925 32.3632C223.77 32.3632 222.978 31.4722 222.978 30.2842C222.978 29.0632 223.803 28.2052 224.958 28.2052C226.113 28.2052 226.905 29.0632 226.905 30.2842C226.905 31.4722 226.146 32.3632 224.925 32.3632Z" fill="url(#paint11_linear_1750_224)"/>
<path d="M15.178 38.5342V21.2752C15.178 19.1632 15.112 17.4472 15.046 15.9292H18.61L18.808 18.4042H18.874C20.062 16.5892 21.943 15.5662 24.385 15.5662C28.081 15.5662 31.15 18.7342 31.15 23.7502C31.15 29.5582 27.487 32.3632 23.824 32.3632C21.811 32.3632 20.128 31.5052 19.303 30.2182H19.237V38.5342H15.178ZM19.237 22.7932V25.2682C19.237 25.6642 19.27 26.0272 19.369 26.3902C19.765 28.0402 21.217 29.2282 22.933 29.2282C25.507 29.2282 27.025 27.0832 27.025 23.9152C27.025 21.0772 25.639 18.7672 23.032 18.7672C21.349 18.7672 19.798 19.9882 19.402 21.7702C19.303 22.1002 19.237 22.4632 19.237 22.7932Z" fill="url(#paint12_linear_1750_224)"/>
<path d="M49.8267 19.7242V30.9772C48.4077 31.5052 45.6357 32.2312 42.6657 32.2312C38.9037 32.2312 36.0657 31.2742 33.9537 29.2612C31.9737 27.3802 30.8187 24.4432 30.8517 21.0772C30.8517 14.0482 35.8677 9.52721 43.2267 9.52721C45.9657 9.52721 48.1107 10.0882 49.1337 10.5832L48.2427 13.8502C47.0217 13.3222 45.5367 12.8932 43.1937 12.8932C38.4417 12.8932 35.1087 15.6982 35.1087 20.8792C35.1087 25.9282 38.2107 28.9312 42.8307 28.9312C44.2827 28.9312 45.3717 28.7332 45.8997 28.4692V22.9252H41.9727V19.7242H49.8267Z" fill="url(#paint13_linear_1750_224)"/>
<path d="M0.652954 25.4652V21.7602C4.64295 21.7032 5.09895 19.5372 5.09895 17.7132C5.09895 16.2312 4.92795 14.6922 4.75695 13.1532C4.52895 11.5572 4.35795 10.0182 4.35795 8.53621C4.35795 3.17821 7.77796 0.898211 12.851 0.898211H14.504V5.00221H13.478C10.514 5.00221 9.48796 6.65521 9.48796 9.44821C9.48796 10.5882 9.65895 11.7852 9.88696 13.0392C10.001 14.2932 10.229 15.6612 10.229 17.1432C10.286 21.1332 8.57595 22.8432 5.66895 23.5272V23.6412C8.57595 24.3252 10.286 26.0922 10.229 30.0822C10.229 31.6212 10.001 32.9892 9.88696 34.2432C9.65895 35.4972 9.48796 36.6942 9.48796 37.8342C9.48796 40.6842 10.628 42.3372 13.478 42.3372H14.504V46.3842H12.851C7.89195 46.3842 4.35795 44.3322 4.35795 38.5752C4.35795 37.1502 4.52895 35.5542 4.75695 34.0152C4.92795 32.4762 5.09895 30.9942 5.09895 29.5122C5.09895 27.8592 4.64295 25.5222 0.652954 25.4652Z" fill="white"/>
<path d="M62.347 21.5352V25.2402C58.357 25.2972 57.901 27.4632 57.901 29.2872C57.901 30.7692 58.072 32.3082 58.243 33.8472C58.471 35.4432 58.642 36.9822 58.642 38.4642C58.642 43.8222 55.222 46.1022 50.149 46.1022H48.496V41.9982H49.522C52.486 41.9982 53.512 40.3452 53.512 37.5522C53.512 36.4122 53.341 35.2152 53.113 33.9612C52.999 32.7072 52.771 31.3392 52.771 29.8572C52.714 25.8672 54.424 24.1572 57.331 23.4732V23.3592C54.424 22.6752 52.714 20.9082 52.771 16.9182C52.771 15.3792 52.999 14.0112 53.113 12.7572C53.341 11.5032 53.512 10.3062 53.512 9.16621C53.512 6.31621 52.372 4.66321 49.522 4.66321L48.496 4.66321V0.616211L50.149 0.616211C55.108 0.616212 58.642 2.66821 58.642 8.42521C58.642 9.85021 58.471 11.4462 58.243 12.9852C58.072 14.5242 57.901 16.0062 57.901 17.4882C57.901 19.1412 58.357 21.4782 62.347 21.5352Z" fill="white"/>
<defs>
<linearGradient id="paint0_linear_1750_224" x1="226.905" y1="23.5002" x2="0.652954" y2="23.5002" gradientUnits="userSpaceOnUse">
<stop stop-color="#682F90"/>
<stop offset="1" stop-color="#8F288D"/>
</linearGradient>
<linearGradient id="paint1_linear_1750_224" x1="226.905" y1="23.5002" x2="0.652954" y2="23.5002" gradientUnits="userSpaceOnUse">
<stop stop-color="#682F90"/>
<stop offset="1" stop-color="#8F288D"/>
</linearGradient>
<linearGradient id="paint2_linear_1750_224" x1="226.905" y1="23.5002" x2="0.652954" y2="23.5002" gradientUnits="userSpaceOnUse">
<stop stop-color="#682F90"/>
<stop offset="1" stop-color="#8F288D"/>
</linearGradient>
<linearGradient id="paint3_linear_1750_224" x1="226.905" y1="23.5002" x2="0.652954" y2="23.5002" gradientUnits="userSpaceOnUse">
<stop stop-color="#682F90"/>
<stop offset="1" stop-color="#8F288D"/>
</linearGradient>
<linearGradient id="paint4_linear_1750_224" x1="226.905" y1="23.5002" x2="0.652954" y2="23.5002" gradientUnits="userSpaceOnUse">
<stop stop-color="#682F90"/>
<stop offset="1" stop-color="#8F288D"/>
</linearGradient>
<linearGradient id="paint5_linear_1750_224" x1="226.905" y1="23.5002" x2="0.652954" y2="23.5002" gradientUnits="userSpaceOnUse">
<stop stop-color="#682F90"/>
<stop offset="1" stop-color="#8F288D"/>
</linearGradient>
<linearGradient id="paint6_linear_1750_224" x1="226.905" y1="23.5002" x2="0.652954" y2="23.5002" gradientUnits="userSpaceOnUse">
<stop stop-color="#682F90"/>
<stop offset="1" stop-color="#8F288D"/>
</linearGradient>
<linearGradient id="paint7_linear_1750_224" x1="226.905" y1="23.5002" x2="0.652954" y2="23.5002" gradientUnits="userSpaceOnUse">
<stop stop-color="#682F90"/>
<stop offset="1" stop-color="#8F288D"/>
</linearGradient>
<linearGradient id="paint8_linear_1750_224" x1="226.905" y1="23.5002" x2="0.652954" y2="23.5002" gradientUnits="userSpaceOnUse">
<stop stop-color="#682F90"/>
<stop offset="1" stop-color="#8F288D"/>
</linearGradient>
<linearGradient id="paint9_linear_1750_224" x1="226.905" y1="23.5002" x2="0.652954" y2="23.5002" gradientUnits="userSpaceOnUse">
<stop stop-color="#682F90"/>
<stop offset="1" stop-color="#8F288D"/>
</linearGradient>
<linearGradient id="paint10_linear_1750_224" x1="226.905" y1="23.5002" x2="0.652954" y2="23.5002" gradientUnits="userSpaceOnUse">
<stop stop-color="#682F90"/>
<stop offset="1" stop-color="#8F288D"/>
</linearGradient>
<linearGradient id="paint11_linear_1750_224" x1="226.905" y1="23.5002" x2="0.652954" y2="23.5002" gradientUnits="userSpaceOnUse">
<stop stop-color="#682F90"/>
<stop offset="1" stop-color="#8F288D"/>
</linearGradient>
<linearGradient id="paint12_linear_1750_224" x1="226.905" y1="23.5002" x2="0.652954" y2="23.5002" gradientUnits="userSpaceOnUse">
<stop stop-color="#682F90"/>
<stop offset="1" stop-color="#8F288D"/>
</linearGradient>
<linearGradient id="paint13_linear_1750_224" x1="226.905" y1="23.5002" x2="0.652954" y2="23.5002" gradientUnits="userSpaceOnUse">
<stop stop-color="#682F90"/>
<stop offset="1" stop-color="#8F288D"/>
</linearGradient>
</defs>
</svg>
