<svg width="69" height="55" viewBox="0 0 69 55" fill="none" xmlns="http://www.w3.org/2000/svg">
<g clip-path="url(#clip0_1854_155)">
<path d="M14.3315 0C10.3945 0 7.48111 3.44694 7.61156 7.18505C7.73689 10.7762 7.5741 15.4278 6.40352 19.2209C5.22945 23.025 3.24354 25.4348 0 25.7443V29.2374C3.24354 29.5469 5.22945 31.9566 6.40352 35.7611C7.5741 39.5542 7.73689 44.2052 7.61156 47.7966C7.48111 51.5342 10.3945 54.9817 14.3321 54.9817H54.6736C58.6109 54.9817 61.5235 51.5347 61.393 47.7966C61.268 44.2054 61.4305 39.5542 62.6011 35.7611C63.7759 31.9569 65.7565 29.5466 69 29.2374V25.7443C65.7565 25.4348 63.7759 23.025 62.6013 19.2209C61.4305 15.4283 61.268 10.7765 61.393 7.18505C61.5235 3.44748 58.6109 0 54.6736 0H14.331H14.3315ZM46.7798 33.8447C46.7798 38.992 42.9417 42.1136 36.5722 42.1136H25.7289C25.4188 42.1134 25.1215 41.9901 24.9022 41.7707C24.683 41.5514 24.5598 41.2539 24.5597 40.9437V14.0379C24.5597 13.7277 24.6829 13.4301 24.9022 13.2107C25.1215 12.9912 25.419 12.8679 25.7292 12.8678H36.5102C41.8213 12.8678 45.3069 15.7459 45.3069 20.1642C45.3069 23.2655 42.9619 26.042 39.9747 26.5281V26.6901C44.0417 27.1363 46.7798 29.9534 46.7798 33.8447ZM35.3895 16.5763H29.2072V25.3116H34.4146C38.4397 25.3116 40.6596 23.6902 40.6596 20.7919C40.6596 18.0761 38.7505 16.5763 35.3895 16.5763ZM29.2075 28.7777V38.404H35.6175C39.8081 38.404 42.0285 36.7219 42.0285 33.5605C42.0285 30.3986 39.7464 28.7771 35.3479 28.7771H29.2075V28.7777Z" fill="#7E13F8"/>
</g>
<defs>
<clipPath id="clip0_1854_155">
<rect width="69" height="55" fill="white"/>
</clipPath>
</defs>
</svg>
