<svg width="55" height="55" viewBox="0 0 55 55" fill="none" xmlns="http://www.w3.org/2000/svg">
<path d="M47.5361 49.4941L27.4707 55L7.45898 49.502L3 0H52L47.5361 49.4941ZM12.7764 11.6641L13.0469 14.6768L13.166 16.0127H35.9082L35.3643 22.0977H27.501V22.0986H20.4336L20.5752 23.6934L20.8467 26.7061L20.9658 28.042H27.501V28.041H34.8369L34.1436 35.749L27.5156 37.5381V37.5391L27.5098 37.541L20.8906 35.7539L20.4678 31.0137H14.5029L15.335 40.3447L27.5088 43.7236L27.5361 43.7158V43.7148L39.6982 40.3447L39.7881 39.3408L40.8213 27.79L42.2598 11.6641L42.4033 10.0693H12.6338L12.7764 11.6641Z" fill="url(#paint0_linear_1854_216)"/>
<path d="M43.209 45.9453L27.5 50.3008V28.041H34.8369L34.1436 35.749L27.5156 37.5381V43.7207L39.6982 40.3447L39.7881 39.3408L40.8213 27.79L42.2598 11.6641L42.4033 10.0693H27.5V4.54297H46.9053L43.209 45.9453ZM35.3643 22.0977H27.5V16.0127H35.9082L35.3643 22.0977Z" fill="#8F288D"/>
<defs>
<linearGradient id="paint0_linear_1854_216" x1="3" y1="27.5" x2="52" y2="27.5" gradientUnits="userSpaceOnUse">
<stop stop-color="#8F288D"/>
<stop offset="1" stop-color="#682F90"/>
</linearGradient>
</defs>
</svg>
