<svg width="55" height="55" viewBox="0 0 55 55" fill="none" xmlns="http://www.w3.org/2000/svg">
<path d="M7.45914 49.5016L3 0H52L47.5364 49.4942L27.4703 55L7.45914 49.5016Z" fill="url(#paint0_linear_1854_216)"/>
<path d="M27.5005 50.3004L43.2094 45.9451L46.9052 4.54297H27.5005V50.3004Z" fill="#8F288D"/>
<path d="M27.5005 22.098H35.3646L35.9078 16.0123H27.5005V10.0693H42.4029L42.2603 11.6639L40.7993 28.041H27.5005V22.098Z" fill="white"/>
<path d="M27.5358 37.5329L27.5096 37.5406L20.8911 35.7536L20.4679 31.0137H14.5029L15.3352 40.3452L27.5087 43.7238L27.5358 43.7161V37.5329Z" fill="#EBEBEB"/>
<path d="M34.8594 27.79L34.1435 35.7487L27.5151 37.5379V43.7211L39.6985 40.3446L39.7879 39.3405L40.8217 27.79H34.8594Z" fill="white"/>
<path d="M27.5207 10.0693V16.0123H13.1657L13.0467 14.6769L12.776 11.6639L12.6338 10.0693H27.5207ZM27.5005 22.0989V28.0419H20.9654L20.8464 26.7064L20.5753 23.6934L20.4335 22.0989H27.5005Z" fill="#EBEBEB"/>
<defs>
<linearGradient id="paint0_linear_1854_216" x1="3" y1="27.5" x2="52" y2="27.5" gradientUnits="userSpaceOnUse">
<stop stop-color="#8F288D"/>
<stop offset="1" stop-color="#682F90"/>
</linearGradient>
</defs>
</svg>
