<svg width="36" height="36" viewBox="0 0 36 36" fill="none" xmlns="http://www.w3.org/2000/svg">
<circle cx="18" cy="18" r="18" fill="black"/>
<g clip-path="url(#clip0_1766_2)">
<path fill-rule="evenodd" clip-rule="evenodd" d="M8 18C8 15.3478 9.05357 12.8043 10.9289 10.9289C12.8043 9.05357 15.3478 8 18 8C20.6522 8 23.1957 9.05357 25.0711 10.9289C26.9464 12.8043 28 15.3478 28 18C28 20.6522 26.9464 23.1957 25.0711 25.0711C23.1957 26.9464 20.6522 28 18 28C15.3478 28 12.8043 26.9464 10.9289 25.0711C9.05357 23.1957 8 20.6522 8 18ZM18 17.9729C18.0004 17.0411 18.3708 16.1476 19.0298 15.4888C19.6888 14.8301 20.5825 14.46 21.5143 14.46C21.8714 14.46 22.1443 14.0314 21.8829 13.7886C21.0684 13.0333 20.0513 12.532 18.9563 12.3462C17.8612 12.1603 16.7357 12.298 15.7176 12.7423C14.6996 13.1866 13.8334 13.9183 13.225 14.8476C12.6166 15.7769 12.2926 16.8635 12.2926 17.9743C12.2926 19.085 12.6166 20.1716 13.225 21.101C13.8334 22.0303 14.6996 22.7619 15.7176 23.2062C16.7357 23.6506 17.8612 23.7882 18.9563 23.6024C20.0513 23.4166 21.0684 22.9153 21.8829 22.16C22.1443 21.9171 21.8714 21.4871 21.5143 21.4871C21.0527 21.4871 20.5956 21.3962 20.1691 21.2195C19.7426 21.0428 19.3552 20.7838 19.0288 20.4573C18.7025 20.1308 18.4436 19.7433 18.2671 19.3167C18.0906 18.8902 17.9998 18.4345 18 17.9729Z" fill="white"/>
</g>
<defs>
<clipPath id="clip0_1766_2">
<rect width="20" height="20" fill="white" transform="translate(8 8)"/>
</clipPath>
</defs>
</svg>
