<svg width="55" height="55" viewBox="0 0 55 55" fill="none" xmlns="http://www.w3.org/2000/svg">
<g clip-path="url(#clip0_1854_173)">
<path d="M19.5508 55.4297C24.6641 55.4297 28.7891 51.3047 28.7891 46.1914V36.9531H19.5508C14.4375 36.9531 10.3125 41.0781 10.3125 46.1914C10.3125 51.3047 14.4375 55.4297 19.5508 55.4297Z" fill="#0ACF83"/>
<path d="M10.3125 27.7148C10.3125 22.6016 14.4375 18.4766 19.5508 18.4766H28.7891V36.9531H19.5508C14.4375 36.9531 10.3125 32.8281 10.3125 27.7148Z" fill="#A259FF"/>
<path d="M10.3125 9.23828C10.3125 4.125 14.4375 0 19.5508 0H28.7891V18.4766H19.5508C14.4375 18.4766 10.3125 14.3516 10.3125 9.23828Z" fill="#F24E1E"/>
<path d="M28.7891 0H38.0273C43.1406 0 47.2656 4.125 47.2656 9.23828C47.2656 14.3516 43.1406 18.4766 38.0273 18.4766H28.7891V0Z" fill="#FF7262"/>
<path d="M47.2656 27.7148C47.2656 32.8281 43.1406 36.9531 38.0273 36.9531C32.9141 36.9531 28.7891 32.8281 28.7891 27.7148C28.7891 22.6016 32.9141 18.4766 38.0273 18.4766C43.1406 18.4766 47.2656 22.6016 47.2656 27.7148Z" fill="#1ABCFE"/>
</g>
<defs>
<clipPath id="clip0_1854_173">
<rect width="55" height="55" fill="white"/>
</clipPath>
</defs>
</svg>
