<svg width="100" height="100" viewBox="0 0 100 100" fill="none" xmlns="http://www.w3.org/2000/svg">
<path d="M37 91.25C40.6562 92.7188 44.625 93.5938 48.8125 93.75C54.4687 93.9375 59.8125 92.7813 64.625 90.5625C58.875 88.3125 53.6562 85 49.2187 80.875C46.3196 85.5041 42.0638 89.127 37.0313 91.25H37Z" fill="#FF9100"/>
<path d="M49.1876 80.8749C39.0313 71.4999 32.8751 57.9061 33.4063 42.9999C33.4063 42.5311 33.4376 42.0311 33.4688 41.5624C28.9611 40.4122 24.2304 40.4661 19.7501 41.7186C17.0313 46.4686 15.4063 51.9061 15.1876 57.7499C14.6563 72.8124 23.7813 85.9686 37.0001 91.2811C42.0469 89.1813 46.309 85.553 49.1876 80.9061V80.8749Z" fill="#FFC400"/>
<path d="M49.1875 80.875C51.6236 76.9744 52.9922 72.5022 53.1562 67.9062C53.5937 55.3437 45.1562 44.5625 33.4687 41.5312C33.4687 42 33.4062 42.5 33.4062 42.9688C33.1448 50.0471 34.4201 57.0981 37.1444 63.6364C39.8687 70.1747 43.9773 76.0452 49.1875 80.8438V80.875Z" fill="#FF9100"/>
<path d="M51.8438 6.25C45.1875 11.5625 39.9375 18.5938 36.75 26.6875C34.8868 31.4334 33.7796 36.4422 33.4688 41.5312C39.263 43.029 44.3725 46.4595 47.9523 51.2554C51.5322 56.0513 53.368 61.9253 53.1563 67.9062C53.0115 72.5054 51.6414 76.9825 49.1875 80.875C53.6783 85.0309 58.9024 88.3158 64.5938 90.5625C76.1563 85.2187 84.3438 73.75 84.8125 60.1562C85.125 51.3438 81.75 43.5 76.9687 36.875C71.9062 29.875 51.8438 6.28125 51.8438 6.28125V6.25Z" fill="#DD2C00"/>
</svg>
