<svg width="55" height="55" viewBox="0 0 55 55" fill="none" xmlns="http://www.w3.org/2000/svg">
<g clip-path="url(#clip0_1998_2)">
<path d="M44.6875 0C47.5282 0 49.9571 1.00857 51.9743 3.02572C53.9914 5.04286 55 7.47179 55 10.3125V44.6875C55 47.5282 53.9914 49.9571 51.9743 51.9743C49.9571 53.9914 47.5282 55 44.6875 55H10.3125C7.47179 55 5.04286 53.9914 3.02572 51.9743C1.00857 49.9571 0 47.5282 0 44.6875V10.3125C0 7.47179 1.00857 5.04286 3.02572 3.02572C5.04286 1.00857 7.47179 0 10.3125 0H44.6875ZM24.9935 27.5C24.9935 25.3993 24.2535 23.6089 22.7734 22.1289C21.2934 20.6489 19.503 19.9089 17.4023 19.9089C15.3016 19.9089 13.5113 20.6489 12.0313 22.1289C10.5512 23.6089 9.8112 25.3993 9.8112 27.5C9.8112 29.6007 10.5512 31.3911 12.0313 32.8711C13.5113 34.3511 15.3016 35.0911 17.4023 35.0911C19.503 35.0911 21.2934 34.3511 22.7734 32.8711C24.2535 31.3911 24.9935 29.6007 24.9935 27.5ZM45.1888 27.5C45.1888 25.3993 44.4488 23.6089 42.9688 22.1289C41.4887 20.6489 39.6984 19.9089 37.5977 19.9089C35.497 19.9089 33.7066 20.6489 32.2266 22.1289C30.7465 23.6089 30.0065 25.3993 30.0065 27.5C30.0065 29.6007 30.7465 31.3911 32.2266 32.8711C33.7066 34.3511 35.497 35.0911 37.5977 35.0911C39.6984 35.0911 41.4887 34.3511 42.9688 32.8711C44.4488 31.3911 45.1888 29.6007 45.1888 27.5Z" fill="url(#paint0_linear_1998_2)"/>
</g>
<defs>
<linearGradient id="paint0_linear_1998_2" x1="0" y1="27.5" x2="55" y2="27.5" gradientUnits="userSpaceOnUse">
<stop stop-color="#8E288D"/>
<stop offset="1" stop-color="#692F90"/>
</linearGradient>
<clipPath id="clip0_1998_2">
<rect width="55" height="55" fill="white"/>
</clipPath>
</defs>
</svg>
