<svg width="55" height="55" viewBox="0 0 55 55" fill="none" xmlns="http://www.w3.org/2000/svg">
<g clip-path="url(#clip0_1854_171)">
<path d="M53.598 25.0846L29.9153 1.40275C28.5524 0.0389258 26.3403 0.0389258 24.9752 1.40275L20.0579 6.32096L26.2961 12.5592C27.7463 12.0697 29.4083 12.398 30.5637 13.5535C31.7252 14.7162 32.0509 16.3924 31.5494 17.8473L37.5616 23.8599C39.0161 23.3585 40.6949 23.6825 41.8559 24.8461C43.4801 26.469 43.4801 29.1 41.8559 30.7238C41.4699 31.1099 41.0117 31.4163 40.5073 31.6253C40.0029 31.8343 39.4622 31.9419 38.9162 31.9419C38.3702 31.9419 37.8296 31.8343 37.3252 31.6253C36.8208 31.4163 36.3625 31.1099 35.9765 30.7238C35.3967 30.1434 35.0015 29.4046 34.8406 28.6002C34.6797 27.7958 34.7602 26.9618 35.072 26.203L29.4655 20.5965L29.4646 35.3524C29.8714 35.5526 30.2428 35.8179 30.5642 36.1378C32.1875 37.7608 32.1875 40.3909 30.5642 42.0172C28.9404 43.6402 26.3085 43.6402 24.6865 42.0172C23.0631 40.3913 23.0631 37.7612 24.6865 36.1378C25.0758 35.7487 25.5383 35.4406 26.0473 35.2312V20.3387C25.5377 20.1301 25.075 19.8217 24.6865 19.4316C23.4567 18.2027 23.1607 16.398 23.7914 14.8872L17.6413 8.73709L1.40257 24.975C0.74743 25.6303 0.379395 26.519 0.379395 27.4457C0.379395 28.3723 0.74743 29.261 1.40257 29.9164L25.0857 53.5982C26.4495 54.962 28.6607 54.962 30.0266 53.5982L53.5984 30.0264C54.2534 29.3709 54.6213 28.4821 54.6212 27.5554C54.6212 26.6287 54.2531 25.74 53.598 25.0846Z" fill="#F34F29"/>
</g>
<defs>
<clipPath id="clip0_1854_171">
<rect width="55" height="55" fill="white"/>
</clipPath>
</defs>
</svg>
