<svg width="61" height="61" viewBox="0 0 61 61" fill="none" xmlns="http://www.w3.org/2000/svg">
<path d="M57.6445 3.35548C55.4055 1.11646 52.7116 -0.0020327 49.5627 2.77312e-06H11.4373C8.2864 2.77312e-06 5.59246 1.11849 3.35548 3.35548C1.11646 5.59449 -0.0020327 8.28844 2.77312e-06 11.4373V49.5627C2.77312e-06 52.7136 1.11849 55.4075 3.35548 57.6445C5.59449 59.8835 8.28844 61.002 11.4373 61H20.3344C20.9145 61 21.3511 60.9796 21.6442 60.9389C21.9856 60.8715 22.2936 60.6894 22.5174 60.4229C22.8085 60.1176 22.954 59.6749 22.954 59.0948L22.9326 56.3927C22.9204 54.6707 22.9143 53.3069 22.9143 52.3014L21.9984 52.4602C21.4182 52.566 20.6845 52.6128 19.797 52.6006C18.871 52.5829 17.9479 52.49 17.0369 52.3228C16.0663 52.1467 15.1528 51.7382 14.3745 51.132C13.5576 50.5143 12.9484 49.6623 12.6281 48.6895L12.2311 47.7735C11.8953 47.0517 11.4751 46.3722 10.9793 45.7492C10.4094 45.0083 9.83336 44.5056 9.25122 44.241L8.97643 44.0425C8.78562 43.9043 8.61144 43.7445 8.45738 43.5662C8.31023 43.4006 8.18972 43.2131 8.10016 43.0105C8.02078 42.8232 8.08693 42.6706 8.29862 42.5525C8.51031 42.4304 8.89501 42.3704 9.45273 42.3724L10.2466 42.4945C10.7758 42.5983 11.4302 42.9148 12.2098 43.4441C12.9977 43.9812 13.6559 44.6874 14.1363 45.5111C14.747 46.594 15.4818 47.4214 16.3408 47.9933C17.2018 48.5633 18.0689 48.8482 18.9421 48.8482C19.8153 48.8482 20.5705 48.7821 21.2076 48.6498C21.8246 48.5219 22.4242 48.321 22.9937 48.0514C23.2318 46.2785 23.8801 44.9147 24.9386 43.9601C23.5659 43.8244 22.2055 43.5856 20.8687 43.2456C19.5642 42.8877 18.3097 42.3677 17.1346 41.6976C15.9049 41.0282 14.8188 40.1236 13.9379 39.0352C13.0911 37.9768 12.396 36.5876 11.8525 34.8676C11.3111 33.1456 11.0404 31.159 11.0404 28.9078C11.0404 25.706 12.0856 22.9784 14.176 20.7252C13.199 18.3172 13.2916 15.6182 14.4539 12.6281C15.2233 12.3879 16.3621 12.566 17.8704 13.1624C19.3787 13.7588 20.484 14.2676 21.1862 14.689C21.8884 15.1164 22.4512 15.4747 22.8746 15.7637C25.3565 15.0717 27.9219 14.7244 30.4985 14.7317C33.1202 14.7317 35.6625 15.0757 38.1254 15.7637L39.6337 14.8111C40.7939 14.1146 42.0176 13.5298 43.2884 13.0647C44.6908 12.5354 45.7635 12.3899 46.5064 12.6281C47.6972 15.6202 47.802 18.3203 46.8209 20.7282C48.9134 22.9774 49.9596 25.7049 49.9596 28.9108C49.9596 31.162 49.6879 33.1537 49.1444 34.8859C48.603 36.6202 47.9017 38.0104 47.0407 39.0566C46.1418 40.1284 45.0517 41.0239 43.8257 41.6976C42.5434 42.4121 41.2987 42.9281 40.0916 43.2456C38.7549 43.5866 37.3945 43.8264 36.0217 43.9631C37.3957 45.1539 38.0837 47.0326 38.0857 49.5993V59.0948C38.0857 59.5426 38.1518 59.9059 38.2841 60.1848C38.3459 60.3186 38.4339 60.4387 38.543 60.5379C38.6521 60.637 38.7801 60.7132 38.9192 60.7618C39.2103 60.8677 39.4688 60.9328 39.6947 60.9573C39.9207 60.9857 40.2443 60.999 40.6657 60.9969H49.5627C52.7136 60.9969 55.4075 59.8785 57.6445 57.6415C59.8815 55.4045 61 52.7105 61 49.5596V11.4373C61 8.2864 59.8835 5.59246 57.6445 3.35548Z" fill="url(#paint0_linear_1732_118)"/>
<defs>
<linearGradient id="paint0_linear_1732_118" x1="0" y1="30.5" x2="61" y2="30.5" gradientUnits="userSpaceOnUse">
<stop stop-color="#8F288D"/>
<stop offset="1" stop-color="#682F90"/>
</linearGradient>
</defs>
</svg>
