<svg width="55" height="55" viewBox="0 0 55 55" fill="none" xmlns="http://www.w3.org/2000/svg">
<g clip-path="url(#clip0_1854_248)">
<path d="M51.9746 3.02543C49.9558 1.00664 47.5268 -0.00183276 44.6877 2.50035e-06H10.3123C7.47135 2.50035e-06 5.04238 1.00848 3.02543 3.02543C1.00664 5.04422 -0.00183276 7.47318 2.50035e-06 10.3123V44.6877C2.50035e-06 47.5287 1.00848 49.9576 3.02543 51.9746C5.04422 53.9934 7.47318 55.0018 10.3123 55H18.3343C18.8573 55 19.251 54.9816 19.5152 54.9449C19.823 54.8841 20.1008 54.72 20.3026 54.4797C20.565 54.2044 20.6962 53.8052 20.6962 53.2822L20.677 50.8459C20.666 49.2933 20.6604 48.0636 20.6604 47.157L19.8346 47.3002C19.3115 47.3956 18.6499 47.4378 17.8497 47.4268C17.0148 47.4108 16.1825 47.327 15.3611 47.1763C14.486 47.0176 13.6623 46.6492 12.9606 46.1027C12.2241 45.5457 11.6748 44.7774 11.386 43.9003L11.0281 43.0745C10.7253 42.4236 10.3464 41.811 9.8994 41.2493C9.38552 40.5813 8.86615 40.128 8.34126 39.8894L8.0935 39.7104C7.92146 39.5858 7.76441 39.4417 7.62551 39.281C7.49283 39.1317 7.38417 38.9627 7.30342 38.78C7.23185 38.6111 7.29149 38.4735 7.48236 38.367C7.67323 38.2569 8.02009 38.2028 8.52295 38.2046L9.2387 38.3147C9.71587 38.4083 10.3059 38.6937 11.0088 39.1709C11.7192 39.6552 12.3127 40.2919 12.7459 41.0346C13.2965 42.0109 13.959 42.757 14.7335 43.2727C15.5098 43.7866 16.2916 44.0435 17.0789 44.0435C17.8663 44.0435 18.5471 43.9838 19.1216 43.8646C19.6779 43.7493 20.2185 43.5681 20.732 43.325C20.9467 41.7265 21.5313 40.4969 22.4856 39.6361C21.248 39.5138 20.0213 39.2985 18.816 38.9919C17.6398 38.6693 16.5087 38.2004 15.4492 37.5962C14.3405 36.9926 13.3612 36.177 12.5669 35.1957C11.8035 34.2414 11.1767 32.9888 10.6867 31.438C10.1985 29.8854 9.95445 28.0942 9.95445 26.0644C9.95445 23.1775 10.8969 20.7183 12.7817 18.6866C11.9007 16.5155 11.9843 14.082 13.0322 11.386C13.7259 11.1694 14.7527 11.33 16.1127 11.8677C17.4726 12.4054 18.4691 12.8643 19.1023 13.2442C19.7355 13.6296 20.2429 13.9526 20.6247 14.2132C22.8625 13.5892 25.1755 13.2761 27.4986 13.2827C29.8624 13.2827 32.1547 13.5929 34.3753 14.2132L35.7353 13.3543C36.7814 12.7263 37.8847 12.199 39.0305 11.7796C40.295 11.3025 41.2622 11.1712 41.932 11.386C43.0057 14.0838 43.1002 16.5183 42.2156 18.6894C44.1022 20.7173 45.0456 23.1766 45.0456 26.0671C45.0456 28.0969 44.8005 29.8927 44.3105 31.4545C43.8223 33.0182 43.1901 34.2717 42.4138 35.215C41.6033 36.1814 40.6204 36.9888 39.515 37.5962C38.3588 38.2404 37.2365 38.7056 36.1482 38.9919C34.943 39.2994 33.7163 39.5156 32.4786 39.6389C33.7174 40.7125 34.3377 42.4064 34.3396 44.7207V53.2822C34.3396 53.6859 34.3992 54.0135 34.5185 54.265C34.5742 54.3857 34.6536 54.4939 34.7519 54.5833C34.8503 54.6727 34.9656 54.7414 35.0911 54.7853C35.3535 54.8807 35.5866 54.9394 35.7903 54.9615C35.994 54.9871 36.2859 54.9991 36.6658 54.9972H44.6877C47.5287 54.9972 49.9576 53.9888 51.9746 51.9718C53.9915 49.9549 55 47.5259 55 44.6849V10.3123C55 7.47135 53.9934 5.04238 51.9746 3.02543Z" fill="url(#paint0_linear_1854_248)"/>
</g>
<defs>
<linearGradient id="paint0_linear_1854_248" x1="0" y1="27.5" x2="55" y2="27.5" gradientUnits="userSpaceOnUse">
<stop stop-color="#8F288D"/>
<stop offset="1" stop-color="#682F90"/>
</linearGradient>
<clipPath id="clip0_1854_248">
<rect width="55" height="55" fill="white"/>
</clipPath>
</defs>
</svg>
