<svg width="55" height="55" viewBox="0 0 55 55" fill="none" xmlns="http://www.w3.org/2000/svg">
<path d="M47.5342 49.4941L27.4707 55L7.45898 49.502L3 0H52L47.5342 49.4941ZM12.1436 11.6602L13.6123 28.6904H27V28.6914H34.8643L34.125 36.709L27 38.5684V38.5615L26.9727 38.5693L20.3105 36.7119L19.8848 31.7822H13.8789L14.7178 41.4844L26.9727 45L27 44.9922V45L40.0947 41.4863L40.1895 40.4424L41.6895 24.1699L41.8467 22.5107H27V22.5098H19.084L18.5381 16.1807H27V16.1816H42.4277L42.5557 14.793L42.8467 11.6602L43 10H12L12.1436 11.6602Z" fill="url(#paint0_linear_1854_209)"/>
<path d="M48 4L44.001 46.5264L27 51V45L40.0947 41.4863L40.1895 40.4424L41.6895 24.1699L41.8467 22.5107H27V16.1816H42.4277L42.5557 14.793L42.8467 11.6602L43 10H27V4H48ZM27 28.6914H34.8643L34.125 36.709L27 38.5684V28.6914Z" fill="#8F288D"/>
<defs>
<linearGradient id="paint0_linear_1854_209" x1="3" y1="27.5" x2="52" y2="27.5" gradientUnits="userSpaceOnUse">
<stop stop-color="#8F288D"/>
<stop offset="1" stop-color="#682F90"/>
</linearGradient>
</defs>
</svg>
