<svg width="55" height="55" viewBox="0 0 55 55" fill="none" xmlns="http://www.w3.org/2000/svg">
<path d="M7.45942 49.502L3 0H52L47.5346 49.4941L27.4702 55L7.45942 49.502Z" fill="#E44F26"/>
<path d="M27 51L44.0006 46.5265L48 4H27V51Z" fill="#F1662A"/>
<path d="M27 22.5099H19.0839L18.5381 16.1809H27V10H12L12.1432 11.6597L13.6123 28.6908H27V22.5099ZM27 38.5611L26.9729 38.5691L20.311 36.7114L19.8852 31.7823H13.8794L14.7174 41.4846L26.9729 45L27 44.992V38.5611Z" fill="#EBEBEB"/>
<path d="M27 22.5106V28.6919H34.8647L34.1249 36.7089L27 38.5687V45L40.0947 41.4864L40.1897 40.4425L41.6899 24.1704L41.847 22.5106H27ZM27 10V16.1813H42.4276L42.5557 14.7935L42.8471 11.6598L43 10H27Z" fill="white"/>
</svg>
