<svg width="55" height="55" viewBox="0 0 55 55" fill="none" xmlns="http://www.w3.org/2000/svg">
<g clip-path="url(#clip0_1854_182)">
<path d="M42.1094 0H12.8906C5.77133 0 0 5.77133 0 12.8906V42.1094C0 49.2287 5.77133 55 12.8906 55H42.1094C49.2287 55 55 49.2287 55 42.1094V12.8906C55 5.77133 49.2287 0 42.1094 0Z" fill="#330000"/>
<path d="M26.5835 32.7276H18.0585L16.3168 38.1131C16.271 38.3193 16.0877 38.4568 15.8815 38.4338H11.573C11.321 38.4338 11.2523 38.2963 11.321 38.0213L18.7002 16.7776C18.769 16.5486 18.8377 16.2963 18.9293 16.0213C19.021 15.5401 19.0668 15.0361 19.0668 14.5318C19.044 14.4173 19.1355 14.3026 19.2502 14.2798H25.1855C25.369 14.2798 25.4605 14.3486 25.4835 14.4631L33.848 38.0673C33.9168 38.3193 33.848 38.4338 33.619 38.4338H28.8293C28.669 38.4568 28.5085 38.3423 28.4627 38.1818L26.5835 32.7276ZM19.3877 28.0756H25.2085C25.071 27.5943 24.8877 27.0213 24.6815 26.4256C24.4752 25.8068 24.269 25.1423 24.0627 24.4548C23.8335 23.7443 23.6273 23.0568 23.398 22.3463C23.169 21.6361 22.9627 20.9713 22.7793 20.3068C22.596 19.6653 22.4355 19.0693 22.2752 18.5193H22.2293C22.023 19.5048 21.771 20.4903 21.4502 21.4756C21.1065 22.5756 20.7627 23.7213 20.396 24.8673C20.1001 25.949 19.7638 27.0191 19.3877 28.0756ZM38.9585 18.2901C38.2023 18.3131 37.469 18.0151 36.919 17.4881C36.392 16.9151 36.117 16.1588 36.1398 15.3798C36.117 14.6006 36.4148 13.8673 36.9648 13.3401C37.5148 12.8129 38.2482 12.5381 39.0045 12.5381C39.8982 12.5381 40.5857 12.8131 41.0898 13.3401C41.5977 13.8957 41.869 14.6274 41.846 15.3798C41.869 16.1588 41.594 16.9151 41.044 17.4881C40.517 18.0381 39.7377 18.3361 38.9585 18.2901ZM36.392 38.1818V20.5361C36.392 20.3068 36.4835 20.2151 36.6898 20.2151H41.2273C41.4335 20.2151 41.5252 20.3298 41.5252 20.5361V38.1818C41.5252 38.4338 41.4335 38.5486 41.2273 38.5486H36.7357C36.5065 38.5486 36.392 38.4111 36.392 38.1818Z" fill="#FF9A00"/>
</g>
<defs>
<clipPath id="clip0_1854_182">
<rect width="55" height="55" fill="white"/>
</clipPath>
</defs>
</svg>
