<svg width="55" height="55" viewBox="0 0 55 55" fill="none" xmlns="http://www.w3.org/2000/svg">
<path d="M42.1094 0C49.2287 0 55 5.77133 55 12.8906V42.1094C55 49.2287 49.2287 55 42.1094 55H12.8906C5.77133 55 0 49.2287 0 42.1094V12.8906C0 5.77133 5.77133 0 12.8906 0H42.1094ZM36.6895 20.2148C36.4833 20.2149 36.3916 20.307 36.3916 20.5361V38.1816C36.3916 38.4108 36.5062 38.5488 36.7354 38.5488H41.2266C41.4328 38.5488 41.5254 38.4337 41.5254 38.1816V20.5361C41.5253 20.33 41.4328 20.2148 41.2266 20.2148H36.6895ZM19.25 14.2803C19.1353 14.3031 19.0436 14.4177 19.0664 14.5322C19.0664 15.0364 19.0204 15.5403 18.9287 16.0215C18.8373 16.2963 18.7689 16.5485 18.7002 16.7773L11.3203 38.0215C11.2516 38.2965 11.3212 38.4336 11.5732 38.4336H15.8809C16.0871 38.4566 16.2706 38.3195 16.3164 38.1133L18.0586 32.7275H26.583L28.4629 38.1816C28.5087 38.3421 28.6688 38.4566 28.8291 38.4336H33.6191C33.8479 38.4335 33.9164 38.3193 33.8477 38.0674L25.4834 14.4629C25.4603 14.3486 25.3687 14.2803 25.1855 14.2803H19.25ZM22.2754 18.5195C22.4356 19.0694 22.5961 19.6653 22.7793 20.3066C22.9628 20.9712 23.1684 21.6364 23.3975 22.3467C23.6267 23.0572 23.8333 23.7446 24.0625 24.4551C24.2687 25.1426 24.4754 25.807 24.6816 26.4258C24.8879 27.0215 25.0705 27.595 25.208 28.0762H19.3877C19.7637 27.0197 20.0996 25.9488 20.3955 24.8672C20.7622 23.7213 21.1065 22.5755 21.4502 21.4756C21.7709 20.4904 22.0233 19.5049 22.2295 18.5195H22.2754ZM39.0039 12.5381C38.248 12.5382 37.5147 12.8129 36.9648 13.3398C36.4149 13.867 36.1169 14.6007 36.1396 15.3799C36.1169 16.1589 36.3919 16.9153 36.9189 17.4883C37.4689 18.0152 38.2019 18.313 38.958 18.29C39.7372 18.336 40.5169 18.0383 41.0439 17.4883C41.5939 16.9153 41.8687 16.1589 41.8457 15.3799C41.8687 14.6275 41.5978 13.8954 41.0898 13.3398C40.5858 12.8129 39.8976 12.5381 39.0039 12.5381Z" fill="url(#paint0_linear_1991_1200)"/>
<defs>
<linearGradient id="paint0_linear_1991_1200" x1="0" y1="27.5" x2="55" y2="27.5" gradientUnits="userSpaceOnUse">
<stop stop-color="#8F288D"/>
<stop offset="1" stop-color="#682F90"/>
</linearGradient>
</defs>
</svg>
