<svg width="55" height="55" viewBox="0 0 55 55" fill="none" xmlns="http://www.w3.org/2000/svg">
<g clip-path="url(#clip0_1854_223)">
<path d="M42.1094 0H12.8906C5.77133 0 0 5.77133 0 12.8906V42.1094C0 49.2287 5.77133 55 12.8906 55H42.1094C49.2287 55 55 49.2287 55 42.1094V12.8906C55 5.77133 49.2287 0 42.1094 0Z" fill="url(#paint0_linear_1854_223)"/>
<path d="M14.4616 45.9623L18.6704 43.4151C19.4825 44.8548 20.2212 46.0729 21.993 46.0729C23.6913 46.0729 24.7621 45.4086 24.7621 42.8245V25.2507H29.9308V42.8975C29.9308 48.2508 26.7928 50.6876 22.2145 50.6876C18.0798 50.6876 15.6798 48.5462 14.4614 45.9619M32.7382 45.4084L36.9465 42.9719C38.0545 44.7811 39.4944 46.1101 42.0416 46.1101C44.1833 46.1101 45.5489 45.0393 45.5489 43.5625C45.5489 41.7904 44.146 41.1627 41.7831 40.1293L40.4913 39.5752C36.7622 37.9879 34.2885 35.9942 34.2885 31.7854C34.2885 27.9088 37.2422 24.9551 41.8572 24.9551C45.1431 24.9551 47.5059 26.0998 49.204 29.0902L45.1798 31.6745C44.2936 30.0871 43.3341 29.4595 41.8572 29.4595C40.3434 29.4595 39.3835 30.4194 39.3835 31.6745C39.3835 33.2251 40.3434 33.8528 42.5585 34.813L43.8505 35.3666C48.2439 37.2497 50.7176 39.1691 50.7176 43.4886C50.7176 48.1408 47.0627 50.688 42.1524 50.688C37.353 50.688 34.2518 48.399 32.7382 45.4084Z" fill="white"/>
</g>
<defs>
<linearGradient id="paint0_linear_1854_223" x1="0" y1="27.5" x2="55" y2="27.5" gradientUnits="userSpaceOnUse">
<stop stop-color="#8F288D"/>
<stop offset="1" stop-color="#682F90"/>
</linearGradient>
<clipPath id="clip0_1854_223">
<rect width="55" height="55" fill="white"/>
</clipPath>
</defs>
</svg>
