<svg width="55" height="55" viewBox="0 0 55 55" fill="none" xmlns="http://www.w3.org/2000/svg">
<path d="M42.1094 0C49.2287 0 55 5.77133 55 12.8906V42.1094C55 49.2287 49.2287 55 42.1094 55H12.8906C5.77133 55 0 49.2287 0 42.1094V12.8906C0 5.77133 5.77133 0 12.8906 0H42.1094ZM24.7617 25.25V42.8242C24.7617 45.4082 23.6913 46.0722 21.9932 46.0723C20.2214 46.0723 19.482 44.8547 18.6699 43.415L14.4619 45.9619C15.6803 48.5462 18.0802 50.6875 22.2148 50.6875C26.7929 50.6873 29.9306 48.2504 29.9307 42.8975V25.25H24.7617ZM41.8574 24.9551C37.2424 24.9551 34.2881 27.9085 34.2881 31.7852C34.2881 35.9939 36.7622 37.9879 40.4912 39.5752L41.7832 40.1289C44.146 41.1623 45.5488 41.7905 45.5488 43.5625C45.5486 45.0392 44.1826 46.1094 42.041 46.1094C39.4941 46.1092 38.0542 44.7808 36.9463 42.9717L32.7383 45.4082C34.2519 48.3987 37.353 50.6875 42.1523 50.6875C47.0626 50.6875 50.7178 48.1405 50.7178 43.4883C50.7178 39.1689 48.2439 37.2493 43.8506 35.3662L42.5586 34.8125C40.3436 33.8524 39.3838 33.2244 39.3838 31.6738C39.384 30.4189 40.3438 29.459 41.8574 29.459C43.334 29.4591 44.2936 30.0867 45.1797 31.6738L49.2041 29.0898C47.506 26.0995 45.1431 24.9551 41.8574 24.9551Z" fill="url(#paint0_linear_1991_1197)"/>
<defs>
<linearGradient id="paint0_linear_1991_1197" x1="0" y1="27.5" x2="55" y2="27.5" gradientUnits="userSpaceOnUse">
<stop stop-color="#8F288D"/>
<stop offset="1" stop-color="#682F90"/>
</linearGradient>
</defs>
</svg>
