<svg width="36" height="36" viewBox="0 0 36 36" fill="none" xmlns="http://www.w3.org/2000/svg">
<circle cx="18" cy="18" r="18" fill="white"/>
<g clip-path="url(#clip0_1766_3)">
<mask id="mask0_1766_3" style="mask-type:luminance" maskUnits="userSpaceOnUse" x="6" y="6" width="24" height="24">
<path d="M6 6H30V30H6V6Z" fill="white"/>
</mask>
<g mask="url(#mask0_1766_3)">
<path d="M18 6C18.2652 6 18.5196 6.10536 18.7071 6.29289C18.8946 6.48043 19 6.73478 19 7V11C19 11.2652 18.8946 11.5196 18.7071 11.7071C18.5196 11.8946 18.2652 12 18 12C17.7348 12 17.4804 11.8946 17.2929 11.7071C17.1054 11.5196 17 11.2652 17 11V7C17 6.73478 17.1054 6.48043 17.2929 6.29289C17.4804 6.10536 17.7348 6 18 6ZM10.929 9.515C10.7404 9.33284 10.4878 9.23205 10.2256 9.23433C9.9634 9.2366 9.71259 9.34177 9.52718 9.52718C9.34177 9.71259 9.2366 9.9634 9.23433 10.2256C9.23205 10.4878 9.33284 10.7404 9.515 10.929L12.343 13.757C12.5316 13.9392 12.7842 14.04 13.0464 14.0377C13.3086 14.0354 13.5594 13.9302 13.7448 13.7448C13.9302 13.5594 14.0354 13.3086 14.0377 13.0464C14.04 12.7842 13.9392 12.5316 13.757 12.343L10.929 9.515ZM7 17C6.73478 17 6.48043 17.1054 6.29289 17.2929C6.10536 17.4804 6 17.7348 6 18C6 18.2652 6.10536 18.5196 6.29289 18.7071C6.48043 18.8946 6.73478 19 7 19H11C11.2652 19 11.5196 18.8946 11.7071 18.7071C11.8946 18.5196 12 18.2652 12 18C12 17.7348 11.8946 17.4804 11.7071 17.2929C11.5196 17.1054 11.2652 17 11 17H7ZM24 18C24 17.7348 24.1054 17.4804 24.2929 17.2929C24.4804 17.1054 24.7348 17 25 17H29C29.2652 17 29.5196 17.1054 29.7071 17.2929C29.8946 17.4804 30 17.7348 30 18C30 18.2652 29.8946 18.5196 29.7071 18.7071C29.5196 18.8946 29.2652 19 29 19H25C24.7348 19 24.4804 18.8946 24.2929 18.7071C24.1054 18.5196 24 18.2652 24 18ZM23.657 22.243C23.4684 22.0608 23.2158 21.96 22.9536 21.9623C22.6914 21.9646 22.4406 22.0698 22.2552 22.2552C22.0698 22.4406 21.9646 22.6914 21.9623 22.9536C21.96 23.2158 22.0608 23.4684 22.243 23.657L25.071 26.485C25.1632 26.5805 25.2736 26.6567 25.3956 26.7091C25.5176 26.7615 25.6488 26.7891 25.7816 26.7903C25.9144 26.7914 26.0461 26.7661 26.169 26.7158C26.2919 26.6655 26.4035 26.5913 26.4974 26.4974C26.5913 26.4035 26.6655 26.2919 26.7158 26.169C26.7661 26.0461 26.7914 25.9144 26.7903 25.7816C26.7891 25.6488 26.7615 25.5176 26.7091 25.3956C26.6567 25.2736 26.5805 25.1632 26.485 25.071L23.657 22.243ZM13.757 23.657C13.8525 23.5648 13.9287 23.4544 13.9811 23.3324C14.0335 23.2104 14.0611 23.0792 14.0623 22.9464C14.0634 22.8136 14.0381 22.6819 13.9878 22.559C13.9375 22.4361 13.8633 22.3245 13.7694 22.2306C13.6755 22.1367 13.5639 22.0625 13.441 22.0122C13.3181 21.9619 13.1864 21.9366 13.0536 21.9377C12.9208 21.9389 12.7896 21.9665 12.6676 22.0189C12.5456 22.0713 12.4352 22.1475 12.343 22.243L9.515 25.07C9.41949 25.1622 9.34331 25.2726 9.2909 25.3946C9.23849 25.5166 9.2109 25.6478 9.20975 25.7806C9.2086 25.9134 9.2339 26.0451 9.28418 26.168C9.33446 26.2908 9.40871 26.4025 9.5026 26.4964C9.5965 26.5903 9.70815 26.6645 9.83105 26.7148C9.95394 26.7651 10.0856 26.7904 10.2184 26.7893C10.3512 26.7881 10.4824 26.7605 10.6044 26.7081C10.7264 26.6557 10.8368 26.5795 10.929 26.484L13.757 23.657ZM26.485 10.929C26.6672 10.7404 26.768 10.4878 26.7657 10.2256C26.7634 9.9634 26.6582 9.71259 26.4728 9.52718C26.2874 9.34177 26.0366 9.2366 25.7744 9.23433C25.5122 9.23205 25.2596 9.33284 25.071 9.515L22.243 12.343C22.1475 12.4352 22.0713 12.5456 22.0189 12.6676C21.9665 12.7896 21.9389 12.9208 21.9377 13.0536C21.9366 13.1864 21.9619 13.3181 22.0122 13.441C22.0625 13.5639 22.1367 13.6755 22.2306 13.7694C22.3245 13.8633 22.4361 13.9375 22.559 13.9878C22.6819 14.0381 22.8136 14.0634 22.9464 14.0623C23.0792 14.0611 23.2104 14.0335 23.3324 13.9811C23.4544 13.9287 23.5648 13.8525 23.657 13.757L26.485 10.929ZM19 25C19 24.7348 18.8946 24.4804 18.7071 24.2929C18.5196 24.1054 18.2652 24 18 24C17.7348 24 17.4804 24.1054 17.2929 24.2929C17.1054 24.4804 17 24.7348 17 25V29C17 29.2652 17.1054 29.5196 17.2929 29.7071C17.4804 29.8946 17.7348 30 18 30C18.2652 30 18.5196 29.8946 18.7071 29.7071C18.8946 29.5196 19 29.2652 19 29V25ZM18 13C16.6739 13 15.4021 13.5268 14.4645 14.4645C13.5268 15.4021 13 16.6739 13 18C13 19.3261 13.5268 20.5979 14.4645 21.5355C15.4021 22.4732 16.6739 23 18 23C19.3261 23 20.5979 22.4732 21.5355 21.5355C22.4732 20.5979 23 19.3261 23 18C23 16.6739 22.4732 15.4021 21.5355 14.4645C20.5979 13.5268 19.3261 13 18 13Z" fill="black"/>
</g>
</g>
<defs>
<clipPath id="clip0_1766_3">
<rect width="24" height="24" fill="white" transform="translate(6 6)"/>
</clipPath>
</defs>
</svg>
