<svg width="50" height="50" viewBox="0 0 50 50" fill="none" xmlns="http://www.w3.org/2000/svg">
<g clip-path="url(#clip0_1722_1260)">
<path d="M44.4444 0C45.9179 0 47.3309 0.585316 48.3728 1.62718C49.4147 2.66905 50 4.08213 50 5.55556V44.4444C50 45.9179 49.4147 47.3309 48.3728 48.3728C47.3309 49.4147 45.9179 50 44.4444 50H5.55556C4.08213 50 2.66905 49.4147 1.62718 48.3728C0.585316 47.3309 0 45.9179 0 44.4444V5.55556C0 4.08213 0.585316 2.66905 1.62718 1.62718C2.66905 0.585316 4.08213 0 5.55556 0H44.4444ZM43.0556 43.0556V28.3333C43.0556 25.9316 42.1015 23.6283 40.4032 21.9301C38.705 20.2318 36.4017 19.2778 34 19.2778C31.6389 19.2778 28.8889 20.7222 27.5556 22.8889V19.8056H19.8056V43.0556H27.5556V29.3611C27.5556 27.2222 29.2778 25.4722 31.4167 25.4722C32.4481 25.4722 33.4372 25.8819 34.1665 26.6113C34.8958 27.3406 35.3056 28.3297 35.3056 29.3611V43.0556H43.0556ZM10.7778 15.4444C12.0155 15.4444 13.2024 14.9528 14.0776 14.0776C14.9528 13.2024 15.4444 12.0155 15.4444 10.7778C15.4444 8.19444 13.3611 6.08333 10.7778 6.08333C9.53273 6.08333 8.33868 6.57792 7.4583 7.4583C6.57792 8.33868 6.08333 9.53273 6.08333 10.7778C6.08333 13.3611 8.19444 15.4444 10.7778 15.4444ZM14.6389 43.0556V19.8056H6.94444V43.0556H14.6389Z" fill="url(#paint0_linear_1722_1260)"/>
</g>
<defs>
<linearGradient id="paint0_linear_1722_1260" x1="0" y1="25" x2="50" y2="25" gradientUnits="userSpaceOnUse">
<stop stop-color="#8F288D"/>
<stop offset="1" stop-color="#682F90"/>
</linearGradient>
<clipPath id="clip0_1722_1260">
<rect width="50" height="50" fill="white"/>
</clipPath>
</defs>
</svg>
