<svg width="55" height="37" viewBox="0 0 55 37" fill="none" xmlns="http://www.w3.org/2000/svg">
<g clip-path="url(#clip0_1854_165)">
<path d="M16.3614 24.4158L18.0329 29.7683C18.4085 30.9836 18.5651 31.8319 18.5023 32.3155C19.4165 29.8991 20.0553 27.2659 20.4186 24.4158H22.4285C21.5642 29.0558 20.4245 32.4275 19.0096 34.5309C17.9072 36.1518 16.6996 36.9622 15.3845 36.9622C15.0339 36.9622 14.6016 36.8577 14.0887 36.6501V35.5316C14.3393 35.5678 14.6333 35.5872 14.9715 35.5872C15.5849 35.5871 16.0796 35.4195 16.4556 35.0845C16.9061 34.6765 17.1315 34.2178 17.1315 33.7095C17.1315 33.3624 16.9557 32.65 16.6056 31.5725L14.2767 24.4158H16.3614ZM3.56888 21.126L6.6304 30.3448H6.64931L9.72963 21.126H12.2463C12.7974 25.6979 13.1229 29.881 13.2228 33.6727H11.101C11.0262 30.1283 10.8197 26.7951 10.4814 23.6731H10.4629L7.23185 33.6727H5.61602L2.40453 23.6731H2.38562C2.14751 26.6715 1.99726 30.0046 1.93488 33.6727H0C0.125039 29.2115 0.437959 25.0296 0.93876 21.126H3.56888Z" fill="#00758F"/>
<path d="M37.8658 20.9396C41.1591 20.9396 42.8057 23.016 42.8057 27.1669C42.8057 29.4225 42.3105 31.1263 41.3211 32.2774C41.1427 32.4877 40.9456 32.6694 40.7381 32.8378L43.0686 33.975L43.0663 33.9749L42.2389 35.3851L39.2039 33.6375C38.7007 33.7845 38.1475 33.858 37.5441 33.858C35.9271 33.858 34.7192 33.3929 33.9207 32.4638C33.0441 31.4361 32.606 29.8182 32.606 27.6128C32.606 25.3699 33.1004 23.6726 34.0902 22.5201C34.9917 21.4658 36.2504 20.9396 37.8658 20.9396ZM27.7811 20.9577C28.9581 20.9577 30.0283 21.2685 30.9923 21.888L30.5027 22.9648C29.6778 22.6188 28.8645 22.445 28.0625 22.445C27.4118 22.445 26.9103 22.5996 26.5608 22.9106C26.2093 23.2189 25.9919 23.6156 25.9919 24.0993C25.9919 24.8425 26.5283 25.487 27.5189 26.0315C27.8434 26.2065 28.1667 26.3836 28.489 26.5627L28.5629 26.6037L28.6 26.6243L28.674 26.6653L28.7109 26.6859L28.7848 26.727C29.5346 27.1442 30.2402 27.5424 30.2402 27.5424C31.2306 28.2363 31.7243 28.9761 31.7243 30.1945C31.7243 31.2586 31.3292 32.1321 30.5416 32.8156C29.7534 33.496 28.6946 33.8372 27.3686 33.8372C26.1284 33.8372 24.9264 33.4445 23.7622 32.6657L24.3068 31.5879C25.3088 32.0836 26.2154 32.3311 27.0296 32.3311C27.7931 32.3311 28.3908 32.1629 28.8232 31.8306C29.2547 31.4959 29.5133 31.0291 29.5133 30.4372C29.5133 29.6922 28.9882 29.0554 28.0249 28.5212C27.7234 28.3568 27.4228 28.1908 27.1231 28.0232L27.0493 27.982C26.9138 27.9064 26.7772 27.8298 26.6435 27.7549L26.571 27.7142C25.9205 27.349 25.3582 27.03 25.3582 27.03C24.3952 26.3349 23.9124 25.589 23.9124 24.3601C23.9124 23.3437 24.2725 22.5222 24.9915 21.8972C25.7124 21.2709 26.6423 20.9577 27.7811 20.9577ZM46.676 21.1256V32.1289H50.6762V33.6723H44.6473V21.1257L46.676 21.1256ZM52.899 32.1337V32.3945H52.4592V33.671H52.123V32.3945H51.6661V32.1337H52.899ZM53.7111 32.1337L54.1334 33.1816L54.5213 32.1337H54.9979V33.671H54.681V32.5011L54.2395 33.671H54.011L53.5688 32.5011H53.5518V33.671H53.252V32.1337H53.7111ZM37.6587 22.4825C35.718 22.4825 34.7472 24.0632 34.7472 27.2226C34.7472 29.0323 35.0044 30.3446 35.518 31.1625C35.9937 31.9194 36.7387 32.2972 37.753 32.2972C39.6937 32.2972 40.6645 30.7042 40.6645 27.5196C40.6645 25.7352 40.4072 24.4342 39.8943 23.6159C39.4181 22.8606 38.6734 22.4825 37.6588 22.4825" fill="#F29111"/>
<path d="M32.5723 0.777431C33.2161 -0.783778 35.4671 0.398526 36.3406 0.943878C36.5547 1.08032 36.8003 1.36858 37.0458 1.47513C37.4287 1.48997 37.8114 1.51955 38.195 1.53535C38.9145 1.70222 39.5884 1.83856 40.1554 2.15725C42.7903 3.68866 44.5055 5.24924 46.084 7.82694C46.4213 8.37293 46.5899 8.96376 46.8654 9.5546C47.2478 10.4353 47.6775 11.3597 48.1214 12.1925C48.3201 12.5873 48.4738 13.0263 48.7498 13.3598C48.8575 13.5122 49.1636 13.5572 49.3465 13.6482C49.8523 13.9066 50.465 14.1027 50.9407 14.4059C51.8289 14.9526 52.6878 15.6039 53.4685 16.2708C53.7595 16.5282 53.9578 16.8926 54.2351 17.1648V17.3022C53.989 17.3768 53.7437 17.4531 53.4983 17.5143C52.9621 17.6502 52.4872 17.6194 51.9671 17.7555C51.6457 17.8475 51.2466 17.9689 50.9095 17.9997L50.9407 18.0307C51.139 18.5899 52.2119 19.0447 52.7026 19.3792C53.2986 19.8037 53.8508 20.3185 54.2954 20.9098C54.4489 21.0606 54.6024 21.1979 54.7551 21.3484C54.8619 21.5008 54.892 21.698 55 21.8339V21.8799C54.8804 21.8383 54.7943 21.7588 54.7128 21.6756L54.6641 21.6255C54.6155 21.5757 54.5664 21.5267 54.5104 21.4863C54.1722 21.2584 53.8364 20.9857 53.4983 20.7738C52.9169 20.4097 52.2426 20.1984 51.6457 19.833C51.3082 19.6208 50.9864 19.3792 50.6647 19.1364C50.3731 18.9237 50.0519 18.5151 49.8686 18.2119C49.7606 18.0443 49.7458 17.8475 49.6225 17.7263C49.6445 17.5239 49.8324 17.4638 50.022 17.4144L50.0656 17.403C50.131 17.3863 50.1951 17.3695 50.2509 17.3474C51.0473 17.0136 51.9968 16.8926 53.223 16.9229C53.1768 16.6191 52.4106 16.2405 52.166 16.0585C51.6751 15.7093 51.1553 15.3449 50.6345 15.0271C50.3586 14.8607 49.883 14.7392 49.5773 14.6031C49.1636 14.4363 48.2442 14.2695 48.0149 13.9517C47.6255 13.4506 47.3458 12.853 47.0742 12.2493L47.0003 12.0846L46.9262 11.9199C46.6052 11.193 46.2065 10.4351 45.8848 9.69072C45.7165 9.32761 45.6393 9.00892 45.4551 8.66066C44.3371 6.52356 42.6825 4.73431 40.6764 3.47599C40.0172 3.06655 39.2821 2.68765 38.4706 2.43013C38.0107 2.29305 37.4588 2.36886 36.9688 2.26369H36.6464C36.3712 2.18714 36.1414 1.8992 35.9266 1.74738C35.4524 1.42954 34.9774 1.21613 34.4102 0.98936C34.2114 0.898397 33.6439 0.686575 33.4458 0.85334C33.3232 0.883767 33.261 0.92946 33.2308 1.05096C33.1087 1.23225 33.2161 1.50535 33.292 1.67253C33.5221 2.15703 33.8435 2.44498 34.1353 2.85441C34.3948 3.21752 34.7172 3.62696 34.9012 4.02177C35.2982 4.87044 35.4831 5.8107 35.851 6.65927C35.9874 6.97838 36.2033 7.34149 36.4019 7.62932C36.5702 7.85779 36.8762 8.02296 36.9688 8.31218C37.1534 8.61539 36.6926 9.61587 36.5859 9.93361C36.1868 11.1769 36.2642 12.9051 36.7237 13.9827L36.7482 14.0395L36.7727 14.0971C36.9405 14.4918 37.1201 14.9168 37.5662 15.0272C37.5969 14.9971 37.5662 15.0129 37.6271 14.9971C37.7351 14.163 37.7655 13.3597 38.0568 12.707C38.2251 12.299 38.5613 12.0105 38.7917 11.6774C38.9453 11.7681 38.9453 12.0418 39.0368 12.2228C39.2362 12.6925 39.4503 13.2074 39.6961 13.6785C40.2005 14.6485 40.7681 15.589 41.4113 16.4376C41.6267 16.7407 41.9323 17.0743 42.2079 17.3473C42.3307 17.453 42.4682 17.514 42.5605 17.6501H42.5906V17.6959C42.131 17.5287 41.8397 17.0594 41.4732 16.7855C40.7831 16.2706 39.9567 15.4973 39.481 14.7553C39.2821 14.3293 39.067 13.921 38.8526 13.4972V13.4665C38.761 13.5876 38.7917 13.7078 38.7458 13.891C38.5469 14.6485 38.7001 15.5127 38.0107 15.7851C37.2293 16.1042 36.6465 15.2702 36.4019 14.8912C35.6203 13.6332 35.4062 11.5109 35.9574 9.7978C36.0798 9.41857 36.0965 8.96376 36.3102 8.66098C36.2641 8.38724 36.0503 8.31239 35.9266 8.14467C35.7122 7.858 35.5286 7.52405 35.3607 7.20568C35.0383 6.58378 34.8088 5.84071 34.564 5.17375C34.4564 4.90139 34.4255 4.62798 34.3182 4.37014C34.1352 3.97661 33.7978 3.5818 33.5375 3.23364C33.185 2.73324 32.1585 1.76339 32.5723 0.777431ZM37.5966 3.7475C37.6375 3.788 37.687 3.82341 37.7381 3.85829L37.7998 3.90006C37.8819 3.95625 37.9615 4.01541 38.0103 4.09598C38.0876 4.20263 38.102 4.30791 38.1946 4.41478C38.1946 4.77916 38.0876 5.02141 37.8716 5.17237C37.8716 5.17237 37.8569 5.18828 37.8418 5.20312C37.7193 4.96023 37.612 4.71862 37.4887 4.47595C37.3368 4.26413 37.122 4.09609 36.9983 3.85405H36.9685V3.82362C37.1534 3.77857 37.3368 3.7475 37.5966 3.7475Z" fill="#00758F"/>
</g>
<defs>
<clipPath id="clip0_1854_165">
<rect width="55" height="37" fill="white"/>
</clipPath>
</defs>
</svg>
