<svg width="55" height="55" viewBox="0 0 55 55" fill="none" xmlns="http://www.w3.org/2000/svg">
<g clip-path="url(#clip0_1854_268)">
<path d="M45.2607 0.6875C50.6461 0.687753 54.9997 5.04143 55 10.4268V44.5732C54.9997 49.9586 50.6461 54.3122 45.2607 54.3125H9.73926C4.35393 54.3122 0.000252873 49.9586 0 44.5732V10.4268C0.000252355 5.04143 4.35393 0.687752 9.73926 0.6875H45.2607ZM39.4395 20.0068C37.8125 20.0069 36.4605 20.2588 35.3838 20.8086C34.3986 21.267 33.5503 22.0005 32.9775 22.917C32.4735 23.7652 32.1982 24.7047 32.1982 25.6904C32.1787 26.5009 32.3591 27.3037 32.7246 28.0273C33.1532 28.798 33.7486 29.4639 34.4668 29.9756C35.4748 30.665 36.5689 31.2192 37.7207 31.625C38.8433 32.0602 39.5998 32.4044 39.9668 32.7021C40.3333 33.0003 40.5166 33.2982 40.5166 33.6191C40.5166 34.0316 40.2649 34.4217 39.8984 34.582C39.486 34.7883 38.867 34.9023 37.9961 34.9023C37.0797 34.9023 36.1629 34.7876 35.292 34.5586C34.292 34.3353 33.3327 33.957 32.4502 33.4365C32.3816 33.3906 32.3128 33.3675 32.2441 33.4131C32.1754 33.4586 32.1524 33.5504 32.1523 33.6191V37.6064C32.1296 37.7899 32.2437 37.9505 32.4043 38.042C33.1474 38.3892 33.9339 38.6358 34.7422 38.7754C35.7734 38.9816 36.8044 39.0732 37.8584 39.0732C39.5081 39.0732 40.8832 38.821 42.0059 38.3398C43.0371 37.9273 43.9317 37.2177 44.5732 36.3008C45.174 35.3994 45.4856 34.336 45.4668 33.2529C45.4894 32.4347 45.3078 31.6236 44.9395 30.8926C44.5037 30.1131 43.8852 29.4715 43.1289 28.9902C42.0226 28.2955 40.8377 27.7342 39.5996 27.3174C39.0468 27.0886 38.504 26.8356 37.9727 26.5605C37.675 26.4003 37.3996 26.1945 37.1934 25.9424C37.0559 25.759 36.9649 25.5529 36.9648 25.3467C36.9648 25.1404 37.0332 24.911 37.1475 24.7275C37.3082 24.4985 37.5606 24.3383 37.8584 24.2695C38.294 24.1553 38.7754 24.0856 39.2334 24.1084C40.1042 24.1084 40.9518 24.2228 41.7998 24.4062C42.5793 24.5665 43.3125 24.8196 44 25.1865C44.0914 25.232 44.2062 25.2319 44.4121 25.1865C44.4479 25.16 44.4771 25.1248 44.4971 25.085C44.5169 25.0452 44.5275 25.0015 44.5273 24.957V21.2217C44.5273 21.1297 44.5042 21.0378 44.4814 20.9463C44.4355 20.8548 44.3435 20.763 44.252 20.7402C43.6199 20.4819 42.9578 20.3046 42.2812 20.2129C41.3403 20.0759 40.3904 20.0071 39.4395 20.0068ZM19.708 14.3232C19.0207 14.3232 18.3332 14.3235 17.623 14.3467C16.9124 14.3694 16.2476 14.3694 15.6289 14.3926C15.0103 14.4153 14.4376 14.4147 13.8877 14.4375C13.3607 14.4603 12.994 14.4609 12.6045 14.4609C12.4442 14.4609 12.375 14.5522 12.375 14.7129V38.2939C12.375 38.5002 12.4669 38.5928 12.6504 38.5928H17.0957C17.256 38.5696 17.3708 38.4317 17.3477 38.2715V30.915C17.7826 30.915 18.1036 30.9148 18.333 30.9375C18.562 30.9603 18.9295 30.9609 19.4795 30.9609C21.3588 30.9609 23.0778 30.7544 24.6357 30.1816C26.1253 29.6316 27.4088 28.6691 28.3252 27.3857C29.2418 26.1025 29.7001 24.4755 29.7002 22.5049C29.7002 21.4736 29.5166 20.4879 29.1729 19.5254C28.8086 18.5449 28.2383 17.654 27.5 16.9131C26.6285 16.0664 25.5792 15.424 24.4287 15.0332C23.1453 14.552 21.5868 14.3232 19.708 14.3232ZM20.2197 18.8369C21.0361 18.8524 21.8316 18.9951 22.5732 19.2959C23.2378 19.5482 23.7871 20.0071 24.1768 20.6025C24.5423 21.2189 24.7252 21.9263 24.7041 22.6426C24.7041 23.6505 24.4753 24.4302 23.9941 25.0029C23.4897 25.5757 22.8473 26.0115 22.1143 26.2178C21.2664 26.4926 20.3729 26.6298 19.4795 26.6299H18.2646C17.9897 26.6299 17.692 26.6068 17.3711 26.584V18.8838C17.5314 18.8606 17.8523 18.8381 18.3105 18.8613C18.7458 18.8381 19.2732 18.8379 19.8691 18.8379C19.9864 18.835 20.1033 18.8346 20.2197 18.8369Z" fill="url(#paint0_linear_1854_268)"/>
</g>
<defs>
<linearGradient id="paint0_linear_1854_268" x1="0" y1="27.5" x2="55" y2="27.5" gradientUnits="userSpaceOnUse">
<stop stop-color="#8F288D"/>
<stop offset="1" stop-color="#682F90"/>
</linearGradient>
<clipPath id="clip0_1854_268">
<rect width="55" height="55" fill="white"/>
</clipPath>
</defs>
</svg>
