<svg width="55" height="55" viewBox="0 0 55 55" fill="none" xmlns="http://www.w3.org/2000/svg">
<g clip-path="url(#clip0_1854_179)">
<path d="M9.73973 0.6875H45.2603C50.646 0.6875 55 5.04152 55 10.4272V44.5728C55 49.9585 50.646 54.3125 45.2603 54.3125H9.73973C4.35402 54.3125 0 49.9585 0 44.5728V10.4272C0 5.04152 4.35402 0.6875 9.73973 0.6875Z" fill="#001E36"/>
<path d="M19.7085 14.3232C19.021 14.3232 18.3335 14.3232 17.6232 14.3464C16.9125 14.3692 16.2478 14.3692 15.629 14.3924C15.0103 14.4152 14.4375 14.4152 13.8875 14.438C13.3603 14.4607 12.9938 14.4607 12.604 14.4607C12.4438 14.4607 12.375 14.5523 12.375 14.713V38.2942C12.375 38.5005 12.4665 38.5924 12.65 38.5924H17.096C17.2563 38.5692 17.371 38.4317 17.3478 38.2714V30.9152C17.783 30.9152 18.104 30.9152 18.3335 30.938C18.5625 30.9607 18.929 30.9607 19.479 30.9607C21.3585 30.9607 23.0772 30.7545 24.6353 30.1817C26.125 29.6317 27.4085 28.6692 28.325 27.3857C29.2417 26.1024 29.7 24.4753 29.7 22.5045C29.7 21.4732 29.517 20.488 29.1732 19.5255C28.809 18.5449 28.2384 17.654 27.5 16.913C26.6285 16.0663 25.5795 15.4243 24.429 15.0335C23.1455 14.5523 21.5875 14.3232 19.7085 14.3232ZM20.2198 18.8371C21.0362 18.8526 21.8311 18.9952 22.5728 19.296C23.2375 19.5482 23.7875 20.0067 24.1772 20.6023C24.5427 21.2186 24.7256 21.9262 24.7045 22.6424C24.7045 23.6505 24.475 24.4299 23.9938 25.0027C23.4893 25.5755 22.8478 26.0112 22.1147 26.2174C21.2665 26.4924 20.3728 26.6295 19.479 26.6295H18.2643C17.9893 26.6295 17.692 26.6067 17.371 26.5839V18.8839C17.5312 18.8607 17.8522 18.838 18.3107 18.8612C18.746 18.838 19.2728 18.838 19.8688 18.838C19.9862 18.8351 20.1032 18.8348 20.2198 18.8371ZM39.4397 20.0071C37.8125 20.0071 36.4603 20.2589 35.3835 20.8089C34.3982 21.2674 33.55 22.0005 32.9772 22.917C32.4732 23.7652 32.1978 24.7045 32.1978 25.6902C32.1782 26.5009 32.3593 27.3039 32.725 28.0277C33.1536 28.7984 33.7487 29.4638 34.467 29.9755C35.4751 30.665 36.569 31.2197 37.721 31.6255C38.8438 32.0607 39.6 32.4045 39.967 32.7023C40.3335 33.0005 40.517 33.2982 40.517 33.6192C40.517 34.0317 40.2647 34.4214 39.8982 34.5817C39.4857 34.788 38.867 34.9027 37.996 34.9027C37.0795 34.9027 36.1625 34.788 35.2915 34.5589C34.2915 34.3356 33.3326 33.9567 32.45 33.4362C32.3813 33.3902 32.3125 33.3674 32.2438 33.4134C32.175 33.4589 32.1522 33.5505 32.1522 33.6192V37.6067C32.1295 37.7902 32.2438 37.9505 32.4045 38.042C33.1476 38.3892 33.9337 38.6358 34.742 38.7755C35.7732 38.9817 36.804 39.0732 37.8581 39.0732C39.5081 39.0732 40.8835 38.8214 42.0063 38.3402C43.0375 37.9277 43.9313 37.2174 44.5728 36.3005C45.1736 35.399 45.4854 34.3359 45.4665 33.2527C45.4891 32.4344 45.3081 31.6234 44.9397 30.8924C44.504 30.113 43.8853 29.4714 43.129 28.9902C42.0227 28.2954 40.8381 27.7338 39.6 27.317C39.0471 27.0881 38.5042 26.8358 37.9728 26.5607C37.675 26.4005 37.4 26.1942 37.1938 25.942C37.0563 25.7585 36.9647 25.5527 36.9647 25.3464C36.9647 25.1402 37.0335 24.9112 37.1478 24.7277C37.3085 24.4987 37.5603 24.338 37.8581 24.2692C38.2938 24.1549 38.775 24.0857 39.233 24.1085C40.104 24.1085 40.9518 24.2232 41.8 24.4067C42.5795 24.567 43.3125 24.8192 44 25.1862C44.0915 25.2317 44.2063 25.2317 44.4125 25.1862C44.4483 25.1596 44.4774 25.125 44.4973 25.0852C44.5172 25.0453 44.5275 25.0013 44.5272 24.9567V21.2214C44.5272 21.1295 44.504 21.038 44.4813 20.9464C44.4353 20.8549 44.3438 20.763 44.2522 20.7402C43.6202 20.4819 42.9579 20.3047 42.2813 20.213C41.3403 20.076 40.3906 20.0075 39.4397 20.0071Z" fill="#31A8FF"/>
</g>
<defs>
<clipPath id="clip0_1854_179">
<rect width="55" height="55" fill="white"/>
</clipPath>
</defs>
</svg>
