<svg width="55" height="55" viewBox="0 0 55 55" fill="none" xmlns="http://www.w3.org/2000/svg">
<path d="M27.5 41.4331C12.3063 41.4331 0 35.1997 0 27.4997C0 19.7997 12.3063 13.5664 27.5 13.5664C42.6938 13.5664 55 19.7997 55 27.4997C55 35.1997 42.6938 41.4331 27.5 41.4331ZM15.6063 23.2143C16.8438 23.2143 17.6917 23.4435 18.1042 23.9247C18.5167 24.3831 18.6083 25.2081 18.4021 26.2852C18.1729 27.4997 17.7375 28.2789 17.0729 28.7831C16.4313 29.2872 15.4458 29.5393 14.1167 29.5393H12.1229L13.3375 23.2143H15.6063ZM7.58542 35.9331H10.8854L11.6646 31.9227H14.4833C15.7208 31.9227 16.7292 31.7852 17.5313 31.5331C18.3333 31.2581 19.0667 30.8227 19.7312 30.2039C20.2812 29.6997 20.7167 29.1497 21.0604 28.531C21.4042 27.9352 21.6563 27.2477 21.7708 26.5143C22.1375 24.7268 21.8854 23.3289 21.0146 22.3435C20.1208 21.3352 18.7458 20.8539 16.8438 20.8539H10.5188L7.58542 35.9331ZM24.2 16.8435L21.2667 31.9227H24.5208L26.2167 23.2831H28.8292C29.6542 23.2831 30.2042 23.4206 30.4563 23.6956C30.7083 23.9706 30.7542 24.4747 30.6167 25.2081L29.3104 31.9227H32.6333L33.9854 24.8872C34.2833 23.4664 34.0542 22.4352 33.3667 21.7706C32.6792 21.1518 31.4188 20.8539 29.5854 20.8539H26.675L27.5 16.8435H24.2ZM41.25 23.2143C42.5104 23.2143 43.3354 23.4435 43.7479 23.9247C44.1604 24.3831 44.2521 25.2081 44.0458 26.2852C43.8167 27.4997 43.3813 28.2789 42.7396 28.7831C42.075 29.2872 41.0896 29.5393 39.7604 29.5393H37.8125L38.9583 23.2143H41.25ZM33.2292 35.9331H36.5292L37.3083 31.9227H40.1042C41.3646 31.9227 42.3958 31.7852 43.1979 31.5331C44 31.2581 44.6875 30.8227 45.375 30.2039C45.925 29.6997 46.3833 29.1497 46.7042 28.531C47.0479 27.9352 47.3 27.2477 47.4375 26.5143C47.7813 24.7268 47.5292 23.3289 46.6583 22.3435C45.8333 21.3352 44.3896 20.8539 42.4875 20.8539H36.1854L33.2292 35.9331Z" fill="#1E88E5"/>
</svg>
