<svg width="61" height="62" viewBox="0 0 61 62" fill="none" xmlns="http://www.w3.org/2000/svg">
<path d="M30.5 23.375C44.6901 23.375 53.375 28.3122 53.375 31C53.375 33.6878 44.6901 38.625 30.5 38.625C16.3099 38.625 7.625 33.6878 7.625 31C7.625 28.3122 16.3099 23.375 30.5 23.375ZM30.5 19.5625C15.7609 19.5625 3.8125 24.6827 3.8125 31C3.8125 37.3173 15.7609 42.4375 30.5 42.4375C45.2391 42.4375 57.1875 37.3173 57.1875 31C57.1875 24.6827 45.2391 19.5625 30.5 19.5625Z" fill="#00BCD4"/>
<path d="M30.5 27.1875C29.746 27.1875 29.0089 27.4111 28.3819 27.83C27.7549 28.2489 27.2663 28.8444 26.9777 29.541C26.6892 30.2377 26.6137 31.0042 26.7608 31.7438C26.9079 32.4833 27.271 33.1627 27.8042 33.6958C28.3373 34.229 29.0167 34.5921 29.7562 34.7392C30.4958 34.8863 31.2623 34.8108 31.959 34.5223C32.6556 34.2337 33.2511 33.7451 33.67 33.1181C34.0889 32.4912 34.3125 31.754 34.3125 31C34.3125 29.9889 33.9108 29.0191 33.1958 28.3042C32.4809 27.5892 31.5111 27.1875 30.5 27.1875Z" fill="#00BCD4"/>
<path d="M19.9354 10.998C23.7803 10.998 31.2528 17.0542 37.1031 27.1878C44.1981 39.4774 44.2648 49.4662 41.9373 50.8101C41.6688 50.9493 41.3683 51.0151 41.0662 51.0007C37.2213 51.0007 29.7468 44.9465 23.8966 34.8128C16.8015 22.5232 16.7348 12.5345 19.0623 11.1906C19.3314 11.051 19.6326 10.9833 19.9354 10.998ZM19.9335 7.18745C18.962 7.16987 18.0033 7.41135 17.1561 7.88705C11.6851 11.0457 13.2254 23.9548 20.5949 36.7191C26.8551 47.5656 35.3112 54.8151 41.0681 54.8151C42.0393 54.8312 42.9972 54.5884 43.8436 54.1117C49.3145 50.955 47.7743 38.0458 40.4047 25.2816C34.1446 14.435 25.6884 7.18555 19.9316 7.18555L19.9335 7.18745Z" fill="#00BCD4"/>
<path d="M41.0662 10.9979C41.3683 10.9835 41.6689 11.0493 41.9374 11.1885C44.2649 12.5343 44.1982 22.523 37.1031 34.8126C31.2509 44.9463 23.7784 51.0024 19.9335 51.0024C19.6314 51.0168 19.3309 50.951 19.0624 50.8118C16.7348 49.4641 16.8016 39.4753 23.8966 27.1876C29.7488 17.054 37.2213 10.9979 41.0662 10.9979ZM41.0662 7.18535C35.3093 7.18535 26.8551 14.4367 20.5931 25.2814C13.2273 38.0456 11.6852 50.9548 17.1561 54.1115C18.003 54.5885 18.9617 54.8313 19.9335 54.8149C25.6904 54.8149 34.1446 47.5635 40.4067 36.7189C47.7724 23.9546 49.3146 11.0455 43.8436 7.88876C42.9967 7.41173 42.0381 7.16893 41.0662 7.18535Z" fill="#00BCD4"/>
</svg>
