<svg width="50" height="50" viewBox="0 0 50 50" fill="none" xmlns="http://www.w3.org/2000/svg">
<path fill-rule="evenodd" clip-rule="evenodd" d="M31.25 43.75C31.25 45.4076 30.5915 46.9973 29.4194 48.1694C28.2473 49.3415 26.6576 50 25 50C23.3424 50 21.7527 49.3415 20.5806 48.1694C19.4085 46.9973 18.75 45.4076 18.75 43.75C18.75 42.0924 19.4085 40.5027 20.5806 39.3306C21.7527 38.1585 23.3424 37.5 25 37.5C26.6576 37.5 28.2473 38.1585 29.4194 39.3306C30.5915 40.5027 31.25 42.0924 31.25 43.75ZM36.8125 16.1219C36.3731 15.683 35.7774 15.4364 35.1563 15.4364C34.5352 15.4364 33.9395 15.683 33.5 16.1219L27.3438 22.2781V2.34375C27.3438 1.72215 27.0968 1.12601 26.6573 0.686468C26.2178 0.24693 25.6216 0 25 0C24.3784 0 23.7823 0.24693 23.3427 0.686468C22.9032 1.12601 22.6563 1.72215 22.6563 2.34375V22.2781L16.5 16.1219C16.0557 15.7079 15.4681 15.4825 14.8609 15.4932C14.2537 15.5039 13.6744 15.7499 13.2449 16.1793C12.8155 16.6087 12.5696 17.1881 12.5588 17.7952C12.5481 18.4024 12.7735 18.9901 13.1875 19.4344L23.3438 29.5906L25 31.25L26.6563 29.5938L36.8125 19.4375C37.0303 19.2198 37.2031 18.9614 37.321 18.6769C37.4388 18.3925 37.4995 18.0876 37.4995 17.7797C37.4995 17.4718 37.4388 17.1669 37.321 16.8824C37.2031 16.598 37.0303 16.3395 36.8125 16.1219Z" fill="url(#paint0_linear_1722_1453)"/>
<defs>
<linearGradient id="paint0_linear_1722_1453" x1="25.029" y1="0" x2="25.029" y2="50" gradientUnits="userSpaceOnUse">
<stop stop-color="#8E298D"/>
<stop offset="1" stop-color="#692F90"/>
</linearGradient>
</defs>
</svg>
