<svg width="63" height="63" viewBox="0 0 63 63" fill="none" xmlns="http://www.w3.org/2000/svg">
<g filter="url(#filter0_d_1854_234)">
<rect width="55" height="55" transform="translate(4)" fill="white"/>
<path d="M17.75 21.6667C19.5833 14.5556 24.1667 11 31.5 11C42.5 11 43.875 19 49.375 20.3333C53.0417 21.2222 56.25 19.8889 59 16.3333C57.1667 23.4444 52.5833 27 45.25 27C34.25 27 32.875 19 27.375 17.6667C23.7083 16.7778 20.5 18.1111 17.75 21.6667ZM4 37.6667C5.83333 30.5556 10.4167 27 17.75 27C28.75 27 30.125 35 35.625 36.3333C39.2917 37.2222 42.5 35.8889 45.25 32.3333C43.4167 39.4444 38.8333 43 31.5 43C20.5 43 19.125 35 13.625 33.6667C9.95833 32.7778 6.75 34.1111 4 37.6667Z" fill="url(#paint0_linear_1854_234)"/>
</g>
<defs>
<filter id="filter0_d_1854_234" x="0" y="0" width="63" height="63" filterUnits="userSpaceOnUse" color-interpolation-filters="sRGB">
<feFlood flood-opacity="0" result="BackgroundImageFix"/>
<feColorMatrix in="SourceAlpha" type="matrix" values="0 0 0 0 0 0 0 0 0 0 0 0 0 0 0 0 0 0 127 0" result="hardAlpha"/>
<feOffset dy="4"/>
<feGaussianBlur stdDeviation="2"/>
<feComposite in2="hardAlpha" operator="out"/>
<feColorMatrix type="matrix" values="0 0 0 0 0 0 0 0 0 0 0 0 0 0 0 0 0 0 0.25 0"/>
<feBlend mode="normal" in2="BackgroundImageFix" result="effect1_dropShadow_1854_234"/>
<feBlend mode="normal" in="SourceGraphic" in2="effect1_dropShadow_1854_234" result="shape"/>
</filter>
<linearGradient id="paint0_linear_1854_234" x1="4" y1="27" x2="59" y2="27" gradientUnits="userSpaceOnUse">
<stop stop-color="#2298BD"/>
<stop offset="1" stop-color="#2CBDEA"/>
</linearGradient>
</defs>
</svg>
