<svg width="55" height="55" viewBox="0 0 55 55" fill="none" xmlns="http://www.w3.org/2000/svg">
<path d="M13.75 21.6667C15.5833 14.5556 20.1667 11 27.5 11C38.5 11 39.875 19 45.375 20.3333C49.0417 21.2222 52.25 19.8889 55 16.3333C53.1667 23.4444 48.5833 27 41.25 27C30.25 27 28.875 19 23.375 17.6667C19.7083 16.7778 16.5 18.1111 13.75 21.6667ZM0 37.6667C1.83333 30.5556 6.41667 27 13.75 27C24.75 27 26.125 35 31.625 36.3333C35.2917 37.2222 38.5 35.8889 41.25 32.3333C39.4167 39.4444 34.8333 43 27.5 43C16.5 43 15.125 35 9.625 33.6667C5.95833 32.7778 2.75 34.1111 0 37.6667Z" fill="url(#paint0_linear_1854_234)"/>
<defs>
<linearGradient id="paint0_linear_1854_234" x1="0" y1="27" x2="55" y2="27" gradientUnits="userSpaceOnUse">
<stop stop-color="#2298BD"/>
<stop offset="1" stop-color="#2CBDEA"/>
</linearGradient>
</defs>
</svg>
