<svg width="55" height="55" viewBox="0 0 55 55" fill="none" xmlns="http://www.w3.org/2000/svg">
<g clip-path="url(#clip0_1854_236)">
<path d="M42.1094 0H12.8906C5.77133 0 0 5.77133 0 12.8906V42.1094C0 49.2287 5.77133 55 12.8906 55H42.1094C49.2287 55 55 49.2287 55 42.1094V12.8906C55 5.77133 49.2287 0 42.1094 0Z" fill="url(#paint0_linear_1854_236)"/>
<path d="M12.1624 27.6824L12.145 29.9349H19.3036V50.276H24.3673V29.9349H31.5259V27.726C31.5259 26.5038 31.4999 25.4824 31.4648 25.4562C31.4386 25.4214 27.0822 25.4038 21.8005 25.4126L12.1886 25.4388L12.1624 27.6824ZM44.3795 25.3748C45.7762 25.7241 46.8414 26.344 47.8192 27.3565C48.3256 27.8979 49.0762 28.8845 49.1375 29.1202C49.1549 29.19 46.7628 30.7964 45.3137 31.6955C45.2612 31.7305 45.0516 31.5034 44.8159 31.1543C44.1088 30.1241 43.3668 29.6788 42.2317 29.6003C40.5643 29.4867 39.4905 30.3598 39.4994 31.8177C39.4994 32.2455 39.5604 32.4986 39.735 32.8479C40.1016 33.6074 40.7826 34.0614 42.9216 34.9867C46.8588 36.6805 48.5436 37.7979 49.5914 39.3867C50.7613 41.1589 51.0231 43.9876 50.2287 46.0915C49.3557 48.3788 47.1905 49.9327 44.1436 50.4479C43.2009 50.6138 40.9659 50.5876 39.9533 50.4043C37.7445 50.0114 35.6494 48.9202 34.3573 47.4884C33.8509 46.9296 32.8643 45.4717 32.9256 45.3669C32.9516 45.3321 33.1787 45.1924 33.4317 45.044C33.6762 44.9043 34.6018 44.3717 35.4747 43.8653L37.0549 42.9486L37.3866 43.4376C37.8494 44.1446 38.8619 45.1138 39.4731 45.4367C41.2278 46.3622 43.6375 46.2312 44.8247 45.1662C45.3311 44.7034 45.5405 44.2233 45.5405 43.5162C45.5405 42.8788 45.4619 42.5995 45.1302 42.1193C44.7024 41.5083 43.8295 40.9931 41.35 39.9193C38.5128 38.697 37.2905 37.9376 36.1731 36.7327C35.5271 36.0345 34.9159 34.9169 34.6628 33.9827C34.4533 33.2058 34.4009 31.2589 34.5668 30.4733C35.1516 27.7321 37.2207 25.8202 40.2064 25.2525C41.1756 25.0693 43.4278 25.1391 44.3795 25.3748Z" fill="white"/>
</g>
<defs>
<linearGradient id="paint0_linear_1854_236" x1="0" y1="27.5" x2="55" y2="27.5" gradientUnits="userSpaceOnUse">
<stop stop-color="#8F288D"/>
<stop offset="1" stop-color="#682F90"/>
</linearGradient>
<clipPath id="clip0_1854_236">
<rect width="55" height="55" fill="white"/>
</clipPath>
</defs>
</svg>
