<svg width="55" height="55" viewBox="0 0 55 55" fill="none" xmlns="http://www.w3.org/2000/svg">
<path d="M42.1094 0C49.2287 0 55 5.77133 55 12.8906V42.1094C55 49.2287 49.2287 55 42.1094 55H12.8906C5.77133 55 0 49.2287 0 42.1094V12.8906C0 5.77133 5.77133 0 12.8906 0H42.1094ZM27.5 6.01562C15.6539 6.01562 6.01562 15.6532 6.01562 27.499C6.01579 39.3462 15.654 48.9824 27.5 48.9824C39.3451 48.9822 48.9842 39.3461 48.9844 27.499C48.9839 15.6533 39.3452 6.01586 27.5 6.01562ZM27.5 7.00098C38.8021 7.00121 47.9971 16.1965 47.9971 27.499C47.9969 38.8021 38.802 47.9978 27.5 47.998C16.1972 47.998 7.00115 38.8022 7.00098 27.499C7.00098 16.1963 16.1969 7.00098 27.5 7.00098ZM22.293 45.1787C23.9836 45.6766 25.7376 45.9296 27.5 45.9297C29.5842 45.9303 31.6532 45.5768 33.6191 44.8848C33.5682 44.8043 33.5243 44.719 33.4883 44.6309L27.8232 29.1113L22.293 45.1787ZM10.665 19.998C9.61142 22.3581 9.06764 24.9145 9.06934 27.499C9.06946 34.7938 13.3087 41.0983 19.4561 44.0859L10.665 19.998ZM43.6709 18.6562C43.7546 19.2844 43.7959 19.9181 43.7949 20.5518C43.7949 22.4219 43.4456 24.5246 42.3936 27.1533L36.7646 43.4297C42.2437 40.2345 45.9287 34.2981 45.9287 27.499C45.9289 24.2947 45.1105 21.2812 43.6709 18.6562ZM27.499 9.06934C21.0607 9.06945 15.3958 12.3733 12.1006 17.377C12.5329 17.3898 12.941 17.3984 13.2871 17.3984C15.2042 17.3984 18.1654 17.1666 18.1982 17.1641C19.1917 17.1056 19.309 18.5651 18.3164 18.6826C18.2972 18.6849 17.3072 18.8007 16.207 18.8584L22.9189 38.8213L26.9521 26.7246L24.0801 18.8584C23.1006 18.8009 22.1721 18.6856 22.1484 18.6826C21.1552 18.6244 21.2714 17.1054 22.2646 17.1641C22.2911 17.1661 25.3162 17.3975 27.1191 17.3975C29.0347 17.3974 31.9935 17.1669 32.0303 17.1641C33.0246 17.1054 33.1412 18.5651 32.1484 18.6826C32.1258 18.6853 31.1351 18.8008 30.0391 18.8584L36.7002 38.6699L38.5381 32.5264C39.3349 29.9772 39.9414 28.1461 39.9414 26.5684C39.9413 24.291 39.1225 22.7141 38.4209 21.4863C37.4865 19.9682 36.6113 18.6821 36.6113 17.1641C36.6113 15.4698 37.8963 13.8926 39.7061 13.8926C39.7879 13.8926 39.8656 13.9027 39.9453 13.9072C36.6664 10.9033 32.2973 9.06934 27.499 9.06934Z" fill="url(#paint0_linear_1991_1201)"/>
<defs>
<linearGradient id="paint0_linear_1991_1201" x1="55" y1="27.5" x2="0" y2="27.5" gradientUnits="userSpaceOnUse">
<stop stop-color="#682F90"/>
<stop offset="1" stop-color="#8F288D"/>
</linearGradient>
</defs>
</svg>
