<svg width="55" height="55" viewBox="0 0 55 55" fill="none" xmlns="http://www.w3.org/2000/svg">
<g clip-path="url(#clip0_1854_275)">
<path d="M42.1094 0H12.8906C5.77133 0 0 5.77133 0 12.8906V42.1094C0 49.2287 5.77133 55 12.8906 55H42.1094C49.2287 55 55 49.2287 55 42.1094V12.8906C55 5.77133 49.2287 0 42.1094 0Z" fill="url(#paint0_linear_1854_275)"/>
<path d="M9.06934 27.4986C9.06934 34.7937 13.3089 41.098 19.4564 44.0856L10.665 19.9982C9.61137 22.3583 9.06764 24.9141 9.06934 27.4986ZM39.9411 26.5686C39.9411 24.291 39.123 22.7136 38.4213 21.4858C37.4869 19.9677 36.6112 18.6821 36.6112 17.164C36.6112 15.4697 37.8962 13.8928 39.7061 13.8928C39.7879 13.8928 39.8653 13.9029 39.945 13.9074C36.666 10.9035 32.2976 9.06934 27.4993 9.06934C21.0608 9.06934 15.3961 12.3728 12.1008 17.3765C12.5331 17.3894 12.9406 17.3986 13.2867 17.3986C15.2145 17.3986 18.1985 17.1644 18.1985 17.1644C19.1919 17.106 19.3092 18.5652 18.3166 18.6827C18.3166 18.6827 17.3183 18.8003 16.2073 18.8585L22.9186 38.8213L26.9519 26.725L24.0805 18.8578C23.0881 18.7996 22.148 18.6821 22.148 18.6821C21.1547 18.6239 21.2712 17.1054 22.2644 17.164C22.2644 17.164 25.3079 17.3978 27.1188 17.3978C29.0464 17.3978 32.0306 17.164 32.0306 17.164C33.0248 17.1054 33.1415 18.5646 32.1487 18.6821C32.1487 18.6821 31.1482 18.7996 30.0394 18.8578L36.6997 38.6694L38.538 32.5266C39.3348 29.9773 39.9411 28.1464 39.9411 26.5686Z" fill="white"/>
<path d="M27.8231 29.1105L22.2935 45.1787C23.9841 45.6766 25.7374 45.9295 27.4998 45.9296C29.5842 45.9303 31.6536 45.577 33.6198 44.8848C33.5687 44.8042 33.5248 44.7192 33.4887 44.6309L27.8231 29.1105ZM43.6713 18.6562C43.755 19.2844 43.7964 19.9175 43.7955 20.5512C43.7955 22.4214 43.4461 24.5238 42.394 27.1527L36.7645 43.429C42.2436 40.2339 45.9291 34.298 45.9291 27.4988C45.9293 24.2944 45.1109 21.2812 43.6713 18.6562Z" fill="white"/>
<path d="M27.4996 6.01562C15.6535 6.01562 6.01562 15.6529 6.01562 27.4987C6.01562 39.3461 15.6535 48.9829 27.4996 48.9829C39.345 48.9829 48.9844 39.3461 48.9844 27.4987C48.9839 15.6529 39.345 6.01562 27.4996 6.01562ZM27.4996 47.9982C16.1966 47.9982 7.00068 38.8021 7.00068 27.4987C7.00068 16.196 16.1964 7.00068 27.4996 7.00068C38.8019 7.00068 47.9972 16.196 47.9972 27.4987C47.9972 38.8021 38.8019 47.9982 27.4996 47.9982Z" fill="white"/>
</g>
<defs>
<linearGradient id="paint0_linear_1854_275" x1="55" y1="27.5" x2="0" y2="27.5" gradientUnits="userSpaceOnUse">
<stop stop-color="#682F90"/>
<stop offset="1" stop-color="#8F288D"/>
</linearGradient>
<clipPath id="clip0_1854_275">
<rect width="55" height="55" fill="white"/>
</clipPath>
</defs>
</svg>
