<svg width="423" height="305" viewBox="0 0 423 305" fill="none" xmlns="http://www.w3.org/2000/svg">
<path d="M97.4867 252.363V136.635C97.4867 122.473 97.0438 110.967 96.6008 100.788H120.521L121.85 117.384H122.293C130.266 105.214 142.891 98.3543 159.281 98.3543C184.087 98.3543 204.685 119.597 204.685 153.231C204.685 192.176 180.1 210.984 155.516 210.984C142.005 210.984 130.709 205.231 125.172 196.601H124.729V252.363H97.4867ZM124.729 146.814V163.41C124.729 166.065 124.951 168.499 125.615 170.933C128.273 181.997 138.018 189.963 149.536 189.963C166.811 189.963 177 175.58 177 154.337C177 135.308 167.697 119.818 150.2 119.818C138.904 119.818 128.495 128.005 125.837 139.954C125.172 142.167 124.729 144.601 124.729 146.814Z" fill="url(#paint0_linear_2002_121)"/>
<path d="M330.037 126.235V201.691C320.513 205.231 301.908 210.099 281.975 210.099C256.725 210.099 237.678 203.682 223.503 190.184C210.214 177.571 202.462 157.878 202.683 135.308C202.683 88.1755 236.349 57.8606 285.74 57.8606C304.123 57.8606 318.52 61.6223 325.386 64.9415L319.406 86.8479C311.211 83.3075 301.244 80.4308 285.518 80.4308C253.625 80.4308 231.255 99.2394 231.255 133.98C231.255 167.835 252.074 187.971 283.082 187.971C292.827 187.971 300.136 186.644 303.68 184.874V147.699H277.324V126.235H330.037Z" fill="url(#paint1_linear_2002_121)"/>
<path d="M0 164.731V139.887C26.7795 139.505 29.84 124.981 29.84 112.751C29.84 102.813 27.5446 82.1743 27.5446 82.1743C27.5446 82.1743 24.8667 61.1529 24.8667 51.2156C24.8667 15.2883 47.8205 7.67367e-05 81.8687 7.67367e-05H92.9631V27.5189H86.0769C66.1836 27.5189 59.2975 38.6028 59.2975 57.3309C59.2975 64.975 60.4451 73.0013 61.9754 81.4098C62.7405 89.8184 64.2708 98.9913 64.2708 108.929C64.6533 135.683 53.1764 147.149 33.6657 151.736V152.5C53.1764 157.087 64.6533 168.935 64.2708 195.689C64.2708 206.009 62.7405 215.182 61.9754 223.59C60.4451 231.999 59.2975 240.025 59.2975 247.669C59.2975 266.779 66.9487 277.863 86.0769 277.863H92.9631V305H81.8687C48.5857 305 24.8667 291.241 24.8667 252.638C24.8667 243.083 26.0144 232.381 27.5446 222.061C28.6923 211.742 29.84 201.805 29.84 191.867C29.84 180.783 26.7795 165.113 0 164.731Z" fill="white"/>
<path d="M423 140.269V165.113C396.22 165.495 393.16 180.019 393.16 192.249C393.16 202.187 394.308 212.506 395.455 222.826C396.986 233.528 398.133 243.847 398.133 253.784C398.133 289.712 375.179 305 341.131 305H330.037V277.481H336.923C356.816 277.481 363.703 266.397 363.703 247.669C363.703 240.025 362.555 231.999 361.025 223.59C360.259 215.182 358.729 206.009 358.729 196.071C358.347 169.317 369.824 157.851 389.334 153.264V152.5C369.824 147.914 358.347 136.065 358.729 109.311C358.729 98.9912 360.259 89.8183 361.025 81.4098C362.555 73.0013 363.703 64.9749 363.703 57.3308C363.703 38.2206 356.051 27.1366 336.923 27.1366H330.037V0H341.131C374.414 2.90697e-06 398.133 13.7594 398.133 52.3621C398.133 61.9173 396.986 72.6191 395.455 82.9386C394.308 93.2582 393.16 103.195 393.16 113.133C393.16 124.217 396.22 139.887 423 140.269Z" fill="white"/>
<defs>
<linearGradient id="paint0_linear_2002_121" x1="0" y1="152.5" x2="423" y2="152.5" gradientUnits="userSpaceOnUse">
<stop stop-color="#8F288D"/>
<stop offset="1" stop-color="#682F90"/>
</linearGradient>
<linearGradient id="paint1_linear_2002_121" x1="0" y1="152.5" x2="423" y2="152.5" gradientUnits="userSpaceOnUse">
<stop stop-color="#8F288D"/>
<stop offset="1" stop-color="#682F90"/>
</linearGradient>
</defs>
</svg>
